<?xml version="1.0" encoding="UTF-8"?>
<svg width="2249px" height="2315px" viewBox="0 0 2249 2315" version="1.1" xmlns="http://www.w3.org/2000/svg" xmlns:xlink="http://www.w3.org/1999/xlink">
    <!-- Generator: Sketch 53.2 (72643) - https://sketchapp.com -->
    <title>Racecar Diagram</title>
    <desc>Created with Sketch.</desc>
    <defs>
        <path d="M100.552227,2.66636696e-15 C115.729687,1.47625971e-13 125.712278,2.20105773e-13 130.5,2.20105773e-13 C135.450839,2.20105773e-13 146.40594,2.20882946e-13 163.365301,2.22437292e-13 L163.365301,2.87668584e-07 C209.04624,2.87668576e-07 247.309666,34.5840856 251.912378,80.0325537 C257.970793,139.855036 261,199.677518 261,259.5 C261,319.322482 257.970793,379.144964 251.912378,438.967446 L251.912379,438.967446 C247.309667,484.415914 209.046241,519 163.365301,519 L130.5,519 L100.552228,519 C56.0161365,519 18.3363443,486.080406 12.3577882,441.947422 C4.11926274,381.131615 1.8727098e-15,320.315807 0,259.5 C0,198.684193 4.11926273,137.868385 12.3577882,77.0525778 L12.3577882,77.0525777 C18.3363442,32.9195938 56.0161363,-4.26934797e-13 100.552227,0 Z" id="path-1"></path>
        <path d="M100.552227,2.66636696e-15 C115.729687,1.47625971e-13 125.712278,2.20105773e-13 130.5,2.20105773e-13 C135.450839,2.20105773e-13 146.40594,2.20882946e-13 163.365301,2.22437292e-13 L163.365301,2.87668584e-07 C209.04624,2.87668576e-07 247.309666,34.5840856 251.912378,80.0325537 C257.970793,139.855036 261,199.677518 261,259.5 C261,319.322482 257.970793,379.144964 251.912378,438.967446 L251.912379,438.967446 C247.309667,484.415914 209.046241,519 163.365301,519 L130.5,519 L100.552228,519 C56.0161365,519 18.3363443,486.080406 12.3577882,441.947422 C4.11926274,381.131615 1.8727098e-15,320.315807 0,259.5 C0,198.684193 4.11926273,137.868385 12.3577882,77.0525778 L12.3577882,77.0525777 C18.3363442,32.9195938 56.0161363,-4.26934797e-13 100.552227,0 Z" id="path-3"></path>
        <path d="M100.552227,2.66636696e-15 C115.729687,1.47625971e-13 125.712278,2.20105773e-13 130.5,2.20105773e-13 C135.450839,2.20105773e-13 146.40594,2.20882946e-13 163.365301,2.22437292e-13 L163.365301,2.87668584e-07 C209.04624,2.87668576e-07 247.309666,34.5840856 251.912378,80.0325537 C257.970793,139.855036 261,199.677518 261,259.5 C261,319.322482 257.970793,379.144964 251.912378,438.967446 L251.912379,438.967446 C247.309667,484.415914 209.046241,519 163.365301,519 L130.5,519 L100.552228,519 C56.0161365,519 18.3363443,486.080406 12.3577882,441.947422 C4.11926274,381.131615 1.8727098e-15,320.315807 0,259.5 C0,198.684193 4.11926273,137.868385 12.3577882,77.0525778 L12.3577882,77.0525777 C18.3363442,32.9195938 56.0161363,-4.26934797e-13 100.552227,0 Z" id="path-5"></path>
        <path d="M100.552227,2.66636696e-15 C115.729687,1.47625971e-13 125.712278,2.20105773e-13 130.5,2.20105773e-13 C135.450839,2.20105773e-13 146.40594,2.20882946e-13 163.365301,2.22437292e-13 L163.365301,2.87668584e-07 C209.04624,2.87668576e-07 247.309666,34.5840856 251.912378,80.0325537 C257.970793,139.855036 261,199.677518 261,259.5 C261,319.322482 257.970793,379.144964 251.912378,438.967446 L251.912379,438.967446 C247.309667,484.415914 209.046241,519 163.365301,519 L130.5,519 L100.552228,519 C56.0161365,519 18.3363443,486.080406 12.3577882,441.947422 C4.11926274,381.131615 1.8727098e-15,320.315807 0,259.5 C0,198.684193 4.11926273,137.868385 12.3577882,77.0525778 L12.3577882,77.0525777 C18.3363442,32.9195938 56.0161363,-4.26934797e-13 100.552227,0 Z" id="path-7"></path>
    </defs>
    <g id="Page-1" stroke="none" stroke-width="1" fill="none" fill-rule="evenodd">
        <g id="Wheel" transform="translate(923.000000, 152.000000)">
            <g id="Wheel-2" transform="translate(-0.000000, 0.000000)">
                <mask id="mask-2" fill="white">
                    <use xlink:href="#path-1"></use>
                </mask>
                <use id="Wheel" fill="#000000" xlink:href="#path-1"></use>
                <path d="M71.117008,8.81994193 C71.117008,8.81994193 93.3268484,13.2520736 93.3268484,13.2520736 C93.3268484,13.2520736 93.3268484,15.4681394 93.3268484,15.4681394 C89.1513984,16.4764493 72.7272214,16.3767264 69.0514928,14.8033196 C66.7860891,13.839331 66.6417251,12.9418243 65.5645478,11.0360077 C47.308059,13.4958408 49.7622464,14.6703557 35.5812633,23.2243697 C35.5812633,23.2243697 34.4707713,19.900271 34.4707713,19.900271 C34.4707713,19.900271 28.9183111,22.1163368 28.9183111,22.1163368 C28.9183111,22.1163368 33.3602792,24.3324026 33.3602792,24.3324026 C33.3602792,24.3324026 26.6973271,26.5484684 26.6973271,26.5484684 C26.6973271,26.5484684 25.5868351,38.7368304 25.5868351,38.7368304 C35.625683,35.8227039 39.379146,24.9307404 45.5756915,35.4127317 C36.9582734,38.8143927 25.3314219,46.3600968 22.255359,55.6121716 C30.5285246,58.8033063 31.1059804,54.9916731 37.8022473,55.6121716 C40.5340577,56.23267 43.0992943,57.5401488 45.5756915,58.6814227 C40.9782545,60.0664638 36.0143552,61.385023 33.0715513,65.5290661 C30.3508459,69.3517796 32.1831577,72.0553799 28.5740586,75.4127196 C24.8539103,78.8697823 14.5707542,83.2021909 17.4691384,90.4598065 C19.1459814,94.6814118 25.1537432,90.9916623 28.796157,91.9667312 C33.0937611,93.1080051 33.8822105,98.1938761 34.4707713,101.894706 C22.8772345,103.833764 27.4524617,107.74512 25.4979957,114.083068 C23.6212642,120.188329 20.1121094,120.343454 22.4330377,128.487496 C22.8550247,129.97226 23.5213199,132.210486 24.4541332,133.429323 C25.4313662,134.714641 27.2858879,135.767272 28.6184783,136.69802 C38.1687097,143.368378 38.1464998,139.124612 45.8866292,140.886384 C53.2602963,142.548433 65.0315117,150.52627 70.0065159,150.016575 C73.7044544,149.628764 77.9909536,146.060898 81.1114361,143.999956 C82.1775085,148.808819 82.1330888,150.581672 79.8454752,155.080286 C78.2685766,158.193858 73.6045101,165.551197 70.2841389,166.69247 C67.8521614,167.512415 65.3424494,165.562277 63.3324589,164.409923 C63.3324589,164.409923 45.6867407,155.412695 45.6867407,155.412695 C41.2225627,152.177239 40.2453298,147.102449 33.3713841,148.908542 C24.343084,151.290813 29.1848292,158.93624 26.4974385,163.745103 C24.0543561,168.110753 15.8034004,171.479173 11.1504388,172.808812 C14.4152853,177.80604 16.7028989,175.999947 21.0338178,178.526262 C23.8322577,180.15507 25.0204841,182.382216 26.6973271,184.997174 C26.6973271,184.997174 32.2497872,181.673075 32.2497872,181.673075 C29.9288589,186.88083 26.4419139,191.224319 26.9083206,197.185536 C27.685665,207.324037 34.7594992,219.412676 35.2370107,222.670293 C35.5923682,225.119046 35.0260173,226.991621 34.4707713,229.31849 C27.3636223,225.462536 21.3558605,225.407134 13.3714228,226.094115 C11.0393896,226.29356 5.07604744,227.412674 7.61907417,231.113504 C9.09602856,233.263087 12.1498816,233.484694 14.4819149,233.806024 C14.4819149,233.806024 30.0288032,236.963917 30.0288032,236.963917 C32.8161381,237.163363 37.2136865,236.409901 38.6573262,239.545634 C39.5568247,241.506852 36.9915881,249.307404 36.6917553,252.587181 C44.9205012,250.18275 45.3980127,244.886353 52.2386436,247.035936 C56.9360248,248.49854 65.409079,254.625962 70.0065159,257.285241 C72.4607033,258.714603 76.7694123,260.864187 79.6566916,259.634271 C84.8982139,257.396044 77.8132748,244.354497 75.2591432,241.983306 C75.2591432,241.983306 51.1281516,226.681372 51.1281516,226.681372 C42.8216713,219.922371 38.4463327,205.440381 38.9127393,194.96947 C38.9127393,194.96947 57.7911037,203.002709 57.7911037,203.002709 C57.7911037,203.002709 67.7855319,207.667527 67.7855319,207.667527 C67.7855319,207.667527 81.1114361,200.509635 81.1114361,200.509635 C81.1114361,200.509635 78.3129963,223.778326 78.3129963,223.778326 C77.8021699,228.952839 81.8998855,238.526244 86.8637848,240.686908 C89.2624476,241.728459 95.0147963,241.551174 97.7688165,241.506852 C113.715482,241.207683 97.6355574,227.390513 113.315705,222.670293 C113.315705,222.670293 114.426197,237.074721 114.426197,237.074721 C114.426197,237.074721 121.388982,235.966688 121.388982,235.966688 C121.388982,235.966688 121.388982,223.778326 121.388982,223.778326 C121.388982,223.778326 121.388982,218.249242 121.388982,218.249242 C121.388982,218.249242 123.654385,213.196611 123.654385,213.196611 C123.654385,213.196611 135.525545,215.878051 135.525545,215.878051 C135.525545,215.878051 147.740957,204.941766 147.740957,204.941766 C147.740957,204.941766 146.630465,228.210457 146.630465,228.210457 C146.852564,239.634277 152.393919,234.02763 159.95637,235.124583 C169.228978,236.465303 166.896945,234.426522 173.282274,233.429292 C178.923573,232.542866 184.875811,237.119042 189.939654,239.168903 C192.471576,240.188293 195.225596,240.709069 197.046803,242.947295 C198.93464,245.263084 198.668122,247.634274 198.579282,250.371115 C198.579282,250.371115 198.579282,253.673054 198.579282,253.673054 C199.800823,265.506845 209.706412,251.235381 213.359931,250.17167 C213.359931,250.17167 228.806875,250.17167 228.806875,250.17167 C228.284944,248.697986 228.296049,247.866961 227.041193,246.404358 C224.498166,243.45699 210.317183,239.135662 205.486543,235.999929 C197.701993,230.936218 196.624816,224.553949 191.794176,219.700765 C191.794176,219.700765 167.729814,201.517945 167.729814,201.517945 C162.721495,196.864206 158.49052,192.986091 157.146825,186.105207 C156.469425,184.254792 155.69208,180.675846 157.146825,179.246483 C160.322832,176.77557 168.318375,183.52349 171.06129,185.152299 C175.047956,187.512409 185.264483,194.116285 189.750871,192.842047 C192.338317,192.110745 195.803052,188.055345 197.713098,186.105207 C196.8136,191.833737 193.282235,197.839275 196.169514,200.67584 C198.590387,203.03595 202.521529,202.094122 205.486543,202.337889 C212.638111,202.925146 216.191686,207.357278 223.665297,200.243707 C225.131146,198.858666 227.030088,196.897447 227.207766,194.781105 C227.763012,188.587201 218.568139,186.825428 215.203348,181.617674 C212.904629,178.049808 214.270534,175.811581 212.704741,171.700779 C212.704741,171.700779 209.27332,165.052582 209.27332,165.052582 C207.21891,160.553968 205.719746,152.299123 205.486543,147.324055 C213.315511,148.553972 216.369364,151.013805 223.254415,154.21602 C225.508714,155.268651 229.328806,157.185548 231.794099,155.955632 C235.214414,154.249261 234.714693,145.916853 233.537571,142.936245 C232.638072,140.631536 231.516476,139.789431 230.050626,137.994418 C224.220543,130.858686 227.651963,126.415474 223.2211,119.634313 C218.979021,113.15232 213.693079,112.365617 206.597035,101.894706 C216.202791,100.642629 220.855752,105.307447 228.806875,109.983346 C231.483161,111.556753 236.258276,114.13847 239.2455,111.833761 C244.320449,107.933485 237.979539,99.5899976 235.525352,96.3545415 C229.972892,88.997203 234.448174,88.3545439 231.272167,83.102468 C227.763012,77.2742149 214.836885,71.7118897 214.748046,66.4044121 C214.670312,62.5816985 220.48929,65.3850218 222.143923,66.4044121 C222.143923,66.4044121 237.690811,75.0138277 237.690811,75.0138277 C239.478703,75.4792016 242.876809,76.6537164 244.598072,75.0138277 C247.751869,72.7201996 242.887914,66.703581 241.633058,64.2215872 C241.633058,64.2215872 238.168323,55.357324 238.168323,55.357324 C234.103922,47.8005396 226.508157,42.1606521 218.812447,38.7368304 C228.373783,37.8171631 242.077255,51.0692366 249.906223,56.4653569 C254.126093,46.3600968 246.15276,40.1883535 241.022287,32.088633 C247.340987,37.5623155 253.693001,41.9833668 255.136641,50.9251924 C255.769621,57.4071849 252.049473,57.850398 255.136641,66.4376531 C256.435916,69.1855747 260.222694,77.1966526 261.943957,79.3240758 C264.131626,81.9944351 266.285981,82.7257368 268.284866,86.4265667 C268.284866,86.4265667 273.215451,103.002739 273.215451,103.002739 C275.969471,113.47365 271.738497,127.445945 281,135.135693 C281,135.135693 281,117.407167 281,117.407167 C281,117.407167 277.268747,100.786673 277.268747,100.786673 C277.268747,100.786673 268.640224,68.6537189 268.640224,68.6537189 C268.640224,68.6537189 259.101097,36.6204875 259.101097,36.6204875 C259.101097,36.6204875 245.464255,25.3074716 245.464255,25.3074716 C245.464255,25.3074716 214.370479,3.2022151 214.370479,3.2022151 C214.370479,3.2022151 206.597035,2.2493068 206.597035,2.2493068 C206.597035,2.2493068 195.025708,2.2493068 195.025708,2.2493068 C195.025708,2.2493068 181.055718,1.06371159 181.055718,1.06371159 C181.055718,1.06371159 148.851449,1.06371159 148.851449,1.06371159 C148.851449,1.06371159 135.525545,-4.54747351e-13 135.525545,-4.54747351e-13 C135.525545,-4.54747351e-13 117.757673,-4.54747351e-13 117.757673,-4.54747351e-13 C117.757673,-4.54747351e-13 71.117008,8.81994193 71.117008,8.81994193 Z M119,27.7507437 C115.011429,31.5749883 113.411429,31.0574214 111,22 C111,22 119,27.7507437 119,27.7507437 Z M177.142857,23 C177.142857,23 192,30.1977359 192,30.1977359 C186.754286,32.9148812 180.822857,28.1283868 176,24.799434 C176,24.799434 177.142857,23 177.142857,23 Z M97,28.0870671 C90.9618301,39.3812003 80.9359759,35.7397387 70.9441076,34.1823136 C68.3045324,33.7677472 60.0686046,34.0366551 60.0006327,30.2383305 C59.9326609,26.9778219 65.3590837,26.9554129 67.5455129,27.0114353 C67.5455129,27.0114353 85.6713511,30.0254451 85.6713511,30.0254451 C85.6713511,30.0254451 97,28.0870671 97,28.0870671 Z M203,34 C203,34 195,34 195,34 C195,34 203,34 203,34 Z M160,31 C157.944211,43.8872647 142.36,38.0978376 140.094211,34.8789162 C139.143684,33.5357691 139.243158,32.4936722 139,31 C155.59,33.6747153 145.078947,32.4126202 160,31 Z M169.430868,43 C174.220149,44.3653366 176.279199,45.685908 180.727201,47.6331913 C180.727201,47.6331913 188.690377,50.9905762 188.690377,50.9905762 C190.703923,51.8075399 200.032214,54.4263002 197.597758,57.9963195 C195.982371,60.3800629 190.669795,57.8732154 188.690377,57.0786343 C184.777045,55.4782808 171.17139,50.4533946 169.430868,47.1743486 C168.623174,45.4396997 169.146469,44.6115448 169.430868,43 Z M115,55 C109.599,54.32 105.881,53.72 104,47 C109.918,47.4 112.745,47.8533333 115,55 Z M90,57.5150181 C85.7992308,71.3532064 74.4979487,66.580261 64.6410256,64.4564679 C55.8094872,62.5450542 56.1623077,63.3386821 47,59.7505897 C47,59.7505897 54.7179487,55 54.7179487,55 C54.7179487,55 77.8717949,60.0859254 77.8717949,60.0859254 C77.8717949,60.0859254 90,57.5150181 90,57.5150181 Z M155,62 C150.402105,71.693978 137.879474,75.6516113 134,63.1116947 C134,63.1116947 143.947368,65.379552 143.947368,65.379552 C143.947368,65.379552 155,62 155,62 Z M124,69 C124,69 116,77 116,77 C116,77 124,69 124,69 Z M195,100 C189.375714,98.3888889 170.454643,88.7333333 166.5575,84.8777778 C164.6975,83.0444444 164.719643,82.3111111 164,80 C164,80 186.142857,89.9888889 186.142857,89.9888889 C186.142857,89.9888889 195,94.1333333 195,94.1333333 C195,94.1333333 195,100 195,100 Z M108.740048,93 C103.567,90.6546204 101.067055,89.8216818 99,84.2322257 C105.385142,83.1252941 110.190233,85.9638611 108.740048,93 Z M86,95.8220104 C85.2054774,101.619014 80.2507464,110.342661 73.8614608,110.995528 C71.8310142,111.198142 54.3625527,104.455607 51.8355296,103.07108 C49.0657356,101.551477 45.0489826,97.5217145 48.0836174,94.2011006 C50.2023443,91.9836058 53.7556258,93.3568767 56.2054037,94.2011006 C56.2054037,94.2011006 73.8614608,100.605946 73.8614608,100.605946 C78.1871947,100.819816 79.6438195,97.6567904 86,95.8220104 Z M151,102 C150.437609,108.265741 144.608208,120.853773 136.94022,117.415533 C134.020112,116.103573 126.168265,108.605041 130.061743,105.178111 C132.560058,102.98397 136.550872,106.863301 140.184785,106.750201 C142.834512,106.659721 147.885218,103.2441 151,102 Z M119,114 C116.584,118.8 116.552,119.466667 111,122 C111.544,116.4 111.576,114.066667 119,114 Z M196,137.333333 C192.887166,146.633333 192.463196,143.955556 193.768578,154 C186.282156,153.2 183.113536,150.255556 177.032911,146.222222 C168.754334,140.722222 158.076979,135.444444 160.297244,124 C172.603538,126.488889 183.02428,140.177778 196,137.333333 Z M95.790361,130 C98.0861253,130.759252 100.427126,131.476323 102.530635,132.667926 C109.870295,136.833266 108.660212,143.181454 105.618042,143.898525 C101.433644,144.868681 95.9599987,138.647034 95.1909742,135.272582 C94.7046793,133.131914 95.236211,131.982491 95.790361,130 Z M149,151 C148.856079,157.362078 146.376219,169.741755 138.99199,171.776328 C131.563478,173.810901 122.153291,161.409694 125.817728,157.082189 C128.30866,154.143361 132.903045,159.48277 136.811041,159.192117 C141.139726,158.869169 141.992179,154.294071 149,151 Z M108.068199,182 C106.133258,177.857403 103.918259,169.098125 109.799462,166.38907 C113.300178,164.774925 114.11489,168.567602 113.987591,170.734846 C113.720264,175.757886 112.167219,178.692695 108.068199,182 Z M7,165 C7,165 7,173 7,173 C7,173 7,165 7,165 Z M4.85503,175 C4.85503,175 1,191 1,191 C11.1965543,187.594286 10.6761253,180.337143 4.85503,175 Z M91,186 C95.0043248,186.716519 96.6335916,187.281049 100.178968,189.278617 C105.858454,192.48124 107.786038,194.73936 106.718983,201.198888 C106.455087,202.740489 105.961718,204.781483 104.848768,205.997394 C101.257497,209.883967 94.9584299,207.636702 92.9734781,203.326732 C92.3653715,201.991401 91.9293705,199.429303 91.6769489,197.941983 C91.1147371,194.695935 91.0458948,193.6103 91,190.342539 C91,190.342539 91,186 91,186 Z M1,200 C1,200 1,228 1,228 C8.80585233,225.1104 6.77835822,222.624 7.1635821,217.92 C7.83265516,209.7328 11.9687431,208.2544 5.05498823,200 C5.05498823,200 1,200 1,200 Z M128.543205,234.179686 C123.270087,241.299438 132.792849,244.731978 137.887971,247.644101 C140.10179,248.917463 143.850822,250.976987 146.387258,249.471098 C149.646801,247.533374 147.28836,243.580417 145.241412,241.786638 C141.592503,238.60877 133.271212,232.917397 128.543205,234.179686 Z M-2.27373675e-13,239 C-2.27373675e-13,239 -2.27373675e-13,267.588817 -2.27373675e-13,267.588817 C-2.27373675e-13,267.588817 1.07248587,280.783656 1.07248587,280.783656 C1.07248587,280.783656 1.07248587,297.277205 1.07248587,297.277205 C1.07248587,297.277205 3.35151833,288.480646 3.35151833,288.480646 C6.88178431,290.624807 22.7456378,296.826381 26.8121467,297.804998 C30.1860085,298.607684 35.9841352,298.596689 37.838642,302.104317 C39.9612703,306.095755 34.967508,307.789093 36.8667017,315.969893 C43.0446671,311.98945 42.843576,307.481214 48.0831164,308.195934 C52.9093028,308.866672 66.4270934,318.169033 71.4990578,320.983932 C74.2919897,322.490343 79.2298934,324.6455 81.464239,320.983932 C82.9500788,318.58687 81.0732285,316.596648 79.1516913,315.255173 C79.1516913,315.255173 64.7960211,307.019394 64.7960211,307.019394 C64.7960211,307.019394 51.3899478,298.574697 51.3899478,298.574697 C51.3899478,298.574697 43.5809101,294.83616 43.5809101,294.83616 C39.5926033,292.48308 37.9280158,289.921082 34.5318106,288.491641 C34.5318106,288.491641 22.3434556,286.27051 22.3434556,286.27051 C15.9085404,284.61016 9.58534244,281.179501 3.35151833,284.082366 C3.35151833,284.082366 3.35151833,248.896129 3.35151833,248.896129 C3.31800315,243.981052 3.63081153,242.628581 -2.27373675e-13,239 Z M127.101733,254 C127.101733,254 119,270.826313 119,270.826313 C129.173462,272.520162 131.210469,261.448448 129.416514,254 C129.416514,254 127.101733,254 127.101733,254 Z M89.8299957,290 C91.9629566,286.731872 95.6813804,280.723799 100.07277,280.34967 C103.597289,280.063571 108.593208,284.46509 112.208976,282.231319 C117.786611,278.765123 108.832738,273.197202 105.775874,272.074814 C97.4493426,269.04877 94.7004465,272.746046 89.8299957,278.996203 C86.6932885,283.067608 83.0661143,287.689203 89.8299957,290 Z M164.66598,277.306174 C159.960366,279.191034 156.218554,283.464097 154.007482,287.908511 C153.281798,289.290028 152.159254,292.010223 154.007482,293.081166 C158.372931,295.555045 162.307504,285.381085 169.190171,287.587228 C171.820779,288.433273 187.230245,298.542976 194.13559,299.860236 C197.219751,300.438546 201.279051,299.260508 199.612243,295.608592 C198.376311,292.899106 193.421244,291.335529 190.733942,290.200329 C190.733942,290.200329 168.056289,277.306174 168.056289,277.306174 C165.618441,276.674318 166.162705,277.19908 164.66598,277.306174 Z M11,285 C11,285 11,293 11,293 C11,293 3,285 3,285 C3,285 11,285 11,285 Z M130.132987,298 C121.489336,303.095419 141.746508,313.965646 144.206624,313.999615 C147.664085,314.044908 149.692018,310.081804 146.134823,306.492365 C143.231443,303.570991 134.111283,298.317048 130.132987,298 Z M200,318.887688 C209.036857,320.056831 207.098,311.769667 213.482857,309.270909 C221.405429,306.176117 233.339429,316.595249 239,306.279277 C232.347714,303.092788 224.915429,302.909393 217.828571,300.880585 C215.21,300.502333 211.789143,299.103945 209.248571,300.880585 C206.663429,302.152888 200.936,315.529265 200,318.887688 Z M2,309 C2,309 2,323 2,323 C14.8987106,319.413846 10.1763793,313.296923 2,309 Z M119,310 C119,310 119,318 119,318 C119,318 119,310 119,310 Z M129.854901,320 C123.752551,321.991499 118.86405,330.756222 121.953848,332.598625 C125.49608,334.72857 129.049346,327.806249 129.854901,325.324863 C130.064566,323.578308 130.031461,321.778504 129.854901,320 Z M2,331 C2,331 2,340 2,340 C14.236124,337.01875 10.9731576,334.40875 2,331 Z M104,338 C105.133,344.894393 108.147,346.904802 115,345.648296 C113.141,339.999483 109.632,338.76483 104,338 Z M183,353.70639 C180.469632,348.372975 169.442091,337.751344 163.29849,341.966098 C161.375853,343.288152 150.867644,354.452164 154.922863,356.644288 C159.077528,358.89291 162.768108,349.774127 166.613383,349.039652 C171.60782,348.090485 173.994543,355.344833 183,353.70639 Z M3.8980962,345 C3.8980962,345 2,363 2,363 C4.39160121,362.5275 6.15683067,362.51625 7.86511724,361.21125 C11.8701002,358.51125 9.26970843,348.29625 7.86511724,345 C7.86511724,345 3.8980962,345 3.8980962,345 Z M3,366 C3,366 9.68757885,403 9.68757885,403 C11.9613557,398.201212 11.0117195,376.292727 8.88506939,371.628485 C7.57430393,368.735758 5.74190733,367.793939 3,366 Z M18,454 C18,454 24.1776062,482 24.1776062,482 C24.1776062,482 26,479.5136 26,479.5136 C26,479.5136 21.2895753,457.4832 21.2895753,457.4832 C21.2895753,457.4832 18,454 18,454 Z M22,487 C23.72,492.5575 22.6133333,497.92 30,500 C29.6,494.106667 28.76,490.011667 22,487 Z M52,544 C52,544 60,552 60,552 C58.76,546.336 58.84,545.92 52,544 Z M56,552.102302 C56,552.102302 61.8290523,560 61.8290523,560 C66.1716962,555.204969 63.8837932,551.312532 56,552.102302 Z" id="Selection" fill="#3A3A3A" mask="url(#mask-2)"></path>
            </g>
        </g>
        <g id="Wheel" transform="translate(923.000000, 1616.000000)">
            <g id="Wheel-2" transform="translate(-0.000000, 0.000000)">
                <mask id="mask-4" fill="white">
                    <use xlink:href="#path-3"></use>
                </mask>
                <use id="Wheel" fill="#000000" xlink:href="#path-3"></use>
                <path d="M71.117008,8.81994193 C71.117008,8.81994193 93.3268484,13.2520736 93.3268484,13.2520736 C93.3268484,13.2520736 93.3268484,15.4681394 93.3268484,15.4681394 C89.1513984,16.4764493 72.7272214,16.3767264 69.0514928,14.8033196 C66.7860891,13.839331 66.6417251,12.9418243 65.5645478,11.0360077 C47.308059,13.4958408 49.7622464,14.6703557 35.5812633,23.2243697 C35.5812633,23.2243697 34.4707713,19.900271 34.4707713,19.900271 C34.4707713,19.900271 28.9183111,22.1163368 28.9183111,22.1163368 C28.9183111,22.1163368 33.3602792,24.3324026 33.3602792,24.3324026 C33.3602792,24.3324026 26.6973271,26.5484684 26.6973271,26.5484684 C26.6973271,26.5484684 25.5868351,38.7368304 25.5868351,38.7368304 C35.625683,35.8227039 39.379146,24.9307404 45.5756915,35.4127317 C36.9582734,38.8143927 25.3314219,46.3600968 22.255359,55.6121716 C30.5285246,58.8033063 31.1059804,54.9916731 37.8022473,55.6121716 C40.5340577,56.23267 43.0992943,57.5401488 45.5756915,58.6814227 C40.9782545,60.0664638 36.0143552,61.385023 33.0715513,65.5290661 C30.3508459,69.3517796 32.1831577,72.0553799 28.5740586,75.4127196 C24.8539103,78.8697823 14.5707542,83.2021909 17.4691384,90.4598065 C19.1459814,94.6814118 25.1537432,90.9916623 28.796157,91.9667312 C33.0937611,93.1080051 33.8822105,98.1938761 34.4707713,101.894706 C22.8772345,103.833764 27.4524617,107.74512 25.4979957,114.083068 C23.6212642,120.188329 20.1121094,120.343454 22.4330377,128.487496 C22.8550247,129.97226 23.5213199,132.210486 24.4541332,133.429323 C25.4313662,134.714641 27.2858879,135.767272 28.6184783,136.69802 C38.1687097,143.368378 38.1464998,139.124612 45.8866292,140.886384 C53.2602963,142.548433 65.0315117,150.52627 70.0065159,150.016575 C73.7044544,149.628764 77.9909536,146.060898 81.1114361,143.999956 C82.1775085,148.808819 82.1330888,150.581672 79.8454752,155.080286 C78.2685766,158.193858 73.6045101,165.551197 70.2841389,166.69247 C67.8521614,167.512415 65.3424494,165.562277 63.3324589,164.409923 C63.3324589,164.409923 45.6867407,155.412695 45.6867407,155.412695 C41.2225627,152.177239 40.2453298,147.102449 33.3713841,148.908542 C24.343084,151.290813 29.1848292,158.93624 26.4974385,163.745103 C24.0543561,168.110753 15.8034004,171.479173 11.1504388,172.808812 C14.4152853,177.80604 16.7028989,175.999947 21.0338178,178.526262 C23.8322577,180.15507 25.0204841,182.382216 26.6973271,184.997174 C26.6973271,184.997174 32.2497872,181.673075 32.2497872,181.673075 C29.9288589,186.88083 26.4419139,191.224319 26.9083206,197.185536 C27.685665,207.324037 34.7594992,219.412676 35.2370107,222.670293 C35.5923682,225.119046 35.0260173,226.991621 34.4707713,229.31849 C27.3636223,225.462536 21.3558605,225.407134 13.3714228,226.094115 C11.0393896,226.29356 5.07604744,227.412674 7.61907417,231.113504 C9.09602856,233.263087 12.1498816,233.484694 14.4819149,233.806024 C14.4819149,233.806024 30.0288032,236.963917 30.0288032,236.963917 C32.8161381,237.163363 37.2136865,236.409901 38.6573262,239.545634 C39.5568247,241.506852 36.9915881,249.307404 36.6917553,252.587181 C44.9205012,250.18275 45.3980127,244.886353 52.2386436,247.035936 C56.9360248,248.49854 65.409079,254.625962 70.0065159,257.285241 C72.4607033,258.714603 76.7694123,260.864187 79.6566916,259.634271 C84.8982139,257.396044 77.8132748,244.354497 75.2591432,241.983306 C75.2591432,241.983306 51.1281516,226.681372 51.1281516,226.681372 C42.8216713,219.922371 38.4463327,205.440381 38.9127393,194.96947 C38.9127393,194.96947 57.7911037,203.002709 57.7911037,203.002709 C57.7911037,203.002709 67.7855319,207.667527 67.7855319,207.667527 C67.7855319,207.667527 81.1114361,200.509635 81.1114361,200.509635 C81.1114361,200.509635 78.3129963,223.778326 78.3129963,223.778326 C77.8021699,228.952839 81.8998855,238.526244 86.8637848,240.686908 C89.2624476,241.728459 95.0147963,241.551174 97.7688165,241.506852 C113.715482,241.207683 97.6355574,227.390513 113.315705,222.670293 C113.315705,222.670293 114.426197,237.074721 114.426197,237.074721 C114.426197,237.074721 121.388982,235.966688 121.388982,235.966688 C121.388982,235.966688 121.388982,223.778326 121.388982,223.778326 C121.388982,223.778326 121.388982,218.249242 121.388982,218.249242 C121.388982,218.249242 123.654385,213.196611 123.654385,213.196611 C123.654385,213.196611 135.525545,215.878051 135.525545,215.878051 C135.525545,215.878051 147.740957,204.941766 147.740957,204.941766 C147.740957,204.941766 146.630465,228.210457 146.630465,228.210457 C146.852564,239.634277 152.393919,234.02763 159.95637,235.124583 C169.228978,236.465303 166.896945,234.426522 173.282274,233.429292 C178.923573,232.542866 184.875811,237.119042 189.939654,239.168903 C192.471576,240.188293 195.225596,240.709069 197.046803,242.947295 C198.93464,245.263084 198.668122,247.634274 198.579282,250.371115 C198.579282,250.371115 198.579282,253.673054 198.579282,253.673054 C199.800823,265.506845 209.706412,251.235381 213.359931,250.17167 C213.359931,250.17167 228.806875,250.17167 228.806875,250.17167 C228.284944,248.697986 228.296049,247.866961 227.041193,246.404358 C224.498166,243.45699 210.317183,239.135662 205.486543,235.999929 C197.701993,230.936218 196.624816,224.553949 191.794176,219.700765 C191.794176,219.700765 167.729814,201.517945 167.729814,201.517945 C162.721495,196.864206 158.49052,192.986091 157.146825,186.105207 C156.469425,184.254792 155.69208,180.675846 157.146825,179.246483 C160.322832,176.77557 168.318375,183.52349 171.06129,185.152299 C175.047956,187.512409 185.264483,194.116285 189.750871,192.842047 C192.338317,192.110745 195.803052,188.055345 197.713098,186.105207 C196.8136,191.833737 193.282235,197.839275 196.169514,200.67584 C198.590387,203.03595 202.521529,202.094122 205.486543,202.337889 C212.638111,202.925146 216.191686,207.357278 223.665297,200.243707 C225.131146,198.858666 227.030088,196.897447 227.207766,194.781105 C227.763012,188.587201 218.568139,186.825428 215.203348,181.617674 C212.904629,178.049808 214.270534,175.811581 212.704741,171.700779 C212.704741,171.700779 209.27332,165.052582 209.27332,165.052582 C207.21891,160.553968 205.719746,152.299123 205.486543,147.324055 C213.315511,148.553972 216.369364,151.013805 223.254415,154.21602 C225.508714,155.268651 229.328806,157.185548 231.794099,155.955632 C235.214414,154.249261 234.714693,145.916853 233.537571,142.936245 C232.638072,140.631536 231.516476,139.789431 230.050626,137.994418 C224.220543,130.858686 227.651963,126.415474 223.2211,119.634313 C218.979021,113.15232 213.693079,112.365617 206.597035,101.894706 C216.202791,100.642629 220.855752,105.307447 228.806875,109.983346 C231.483161,111.556753 236.258276,114.13847 239.2455,111.833761 C244.320449,107.933485 237.979539,99.5899976 235.525352,96.3545415 C229.972892,88.997203 234.448174,88.3545439 231.272167,83.102468 C227.763012,77.2742149 214.836885,71.7118897 214.748046,66.4044121 C214.670312,62.5816985 220.48929,65.3850218 222.143923,66.4044121 C222.143923,66.4044121 237.690811,75.0138277 237.690811,75.0138277 C239.478703,75.4792016 242.876809,76.6537164 244.598072,75.0138277 C247.751869,72.7201996 242.887914,66.703581 241.633058,64.2215872 C241.633058,64.2215872 238.168323,55.357324 238.168323,55.357324 C234.103922,47.8005396 226.508157,42.1606521 218.812447,38.7368304 C228.373783,37.8171631 242.077255,51.0692366 249.906223,56.4653569 C254.126093,46.3600968 246.15276,40.1883535 241.022287,32.088633 C247.340987,37.5623155 253.693001,41.9833668 255.136641,50.9251924 C255.769621,57.4071849 252.049473,57.850398 255.136641,66.4376531 C256.435916,69.1855747 260.222694,77.1966526 261.943957,79.3240758 C264.131626,81.9944351 266.285981,82.7257368 268.284866,86.4265667 C268.284866,86.4265667 273.215451,103.002739 273.215451,103.002739 C275.969471,113.47365 271.738497,127.445945 281,135.135693 C281,135.135693 281,117.407167 281,117.407167 C281,117.407167 277.268747,100.786673 277.268747,100.786673 C277.268747,100.786673 268.640224,68.6537189 268.640224,68.6537189 C268.640224,68.6537189 259.101097,36.6204875 259.101097,36.6204875 C259.101097,36.6204875 245.464255,25.3074716 245.464255,25.3074716 C245.464255,25.3074716 214.370479,3.2022151 214.370479,3.2022151 C214.370479,3.2022151 206.597035,2.2493068 206.597035,2.2493068 C206.597035,2.2493068 195.025708,2.2493068 195.025708,2.2493068 C195.025708,2.2493068 181.055718,1.06371159 181.055718,1.06371159 C181.055718,1.06371159 148.851449,1.06371159 148.851449,1.06371159 C148.851449,1.06371159 135.525545,-4.54747351e-13 135.525545,-4.54747351e-13 C135.525545,-4.54747351e-13 117.757673,-4.54747351e-13 117.757673,-4.54747351e-13 C117.757673,-4.54747351e-13 71.117008,8.81994193 71.117008,8.81994193 Z M119,27.7507437 C115.011429,31.5749883 113.411429,31.0574214 111,22 C111,22 119,27.7507437 119,27.7507437 Z M177.142857,23 C177.142857,23 192,30.1977359 192,30.1977359 C186.754286,32.9148812 180.822857,28.1283868 176,24.799434 C176,24.799434 177.142857,23 177.142857,23 Z M97,28.0870671 C90.9618301,39.3812003 80.9359759,35.7397387 70.9441076,34.1823136 C68.3045324,33.7677472 60.0686046,34.0366551 60.0006327,30.2383305 C59.9326609,26.9778219 65.3590837,26.9554129 67.5455129,27.0114353 C67.5455129,27.0114353 85.6713511,30.0254451 85.6713511,30.0254451 C85.6713511,30.0254451 97,28.0870671 97,28.0870671 Z M203,34 C203,34 195,34 195,34 C195,34 203,34 203,34 Z M160,31 C157.944211,43.8872647 142.36,38.0978376 140.094211,34.8789162 C139.143684,33.5357691 139.243158,32.4936722 139,31 C155.59,33.6747153 145.078947,32.4126202 160,31 Z M169.430868,43 C174.220149,44.3653366 176.279199,45.685908 180.727201,47.6331913 C180.727201,47.6331913 188.690377,50.9905762 188.690377,50.9905762 C190.703923,51.8075399 200.032214,54.4263002 197.597758,57.9963195 C195.982371,60.3800629 190.669795,57.8732154 188.690377,57.0786343 C184.777045,55.4782808 171.17139,50.4533946 169.430868,47.1743486 C168.623174,45.4396997 169.146469,44.6115448 169.430868,43 Z M115,55 C109.599,54.32 105.881,53.72 104,47 C109.918,47.4 112.745,47.8533333 115,55 Z M90,57.5150181 C85.7992308,71.3532064 74.4979487,66.580261 64.6410256,64.4564679 C55.8094872,62.5450542 56.1623077,63.3386821 47,59.7505897 C47,59.7505897 54.7179487,55 54.7179487,55 C54.7179487,55 77.8717949,60.0859254 77.8717949,60.0859254 C77.8717949,60.0859254 90,57.5150181 90,57.5150181 Z M155,62 C150.402105,71.693978 137.879474,75.6516113 134,63.1116947 C134,63.1116947 143.947368,65.379552 143.947368,65.379552 C143.947368,65.379552 155,62 155,62 Z M124,69 C124,69 116,77 116,77 C116,77 124,69 124,69 Z M195,100 C189.375714,98.3888889 170.454643,88.7333333 166.5575,84.8777778 C164.6975,83.0444444 164.719643,82.3111111 164,80 C164,80 186.142857,89.9888889 186.142857,89.9888889 C186.142857,89.9888889 195,94.1333333 195,94.1333333 C195,94.1333333 195,100 195,100 Z M108.740048,93 C103.567,90.6546204 101.067055,89.8216818 99,84.2322257 C105.385142,83.1252941 110.190233,85.9638611 108.740048,93 Z M86,95.8220104 C85.2054774,101.619014 80.2507464,110.342661 73.8614608,110.995528 C71.8310142,111.198142 54.3625527,104.455607 51.8355296,103.07108 C49.0657356,101.551477 45.0489826,97.5217145 48.0836174,94.2011006 C50.2023443,91.9836058 53.7556258,93.3568767 56.2054037,94.2011006 C56.2054037,94.2011006 73.8614608,100.605946 73.8614608,100.605946 C78.1871947,100.819816 79.6438195,97.6567904 86,95.8220104 Z M151,102 C150.437609,108.265741 144.608208,120.853773 136.94022,117.415533 C134.020112,116.103573 126.168265,108.605041 130.061743,105.178111 C132.560058,102.98397 136.550872,106.863301 140.184785,106.750201 C142.834512,106.659721 147.885218,103.2441 151,102 Z M119,114 C116.584,118.8 116.552,119.466667 111,122 C111.544,116.4 111.576,114.066667 119,114 Z M196,137.333333 C192.887166,146.633333 192.463196,143.955556 193.768578,154 C186.282156,153.2 183.113536,150.255556 177.032911,146.222222 C168.754334,140.722222 158.076979,135.444444 160.297244,124 C172.603538,126.488889 183.02428,140.177778 196,137.333333 Z M95.790361,130 C98.0861253,130.759252 100.427126,131.476323 102.530635,132.667926 C109.870295,136.833266 108.660212,143.181454 105.618042,143.898525 C101.433644,144.868681 95.9599987,138.647034 95.1909742,135.272582 C94.7046793,133.131914 95.236211,131.982491 95.790361,130 Z M149,151 C148.856079,157.362078 146.376219,169.741755 138.99199,171.776328 C131.563478,173.810901 122.153291,161.409694 125.817728,157.082189 C128.30866,154.143361 132.903045,159.48277 136.811041,159.192117 C141.139726,158.869169 141.992179,154.294071 149,151 Z M108.068199,182 C106.133258,177.857403 103.918259,169.098125 109.799462,166.38907 C113.300178,164.774925 114.11489,168.567602 113.987591,170.734846 C113.720264,175.757886 112.167219,178.692695 108.068199,182 Z M7,165 C7,165 7,173 7,173 C7,173 7,165 7,165 Z M4.85503,175 C4.85503,175 1,191 1,191 C11.1965543,187.594286 10.6761253,180.337143 4.85503,175 Z M91,186 C95.0043248,186.716519 96.6335916,187.281049 100.178968,189.278617 C105.858454,192.48124 107.786038,194.73936 106.718983,201.198888 C106.455087,202.740489 105.961718,204.781483 104.848768,205.997394 C101.257497,209.883967 94.9584299,207.636702 92.9734781,203.326732 C92.3653715,201.991401 91.9293705,199.429303 91.6769489,197.941983 C91.1147371,194.695935 91.0458948,193.6103 91,190.342539 C91,190.342539 91,186 91,186 Z M1,200 C1,200 1,228 1,228 C8.80585233,225.1104 6.77835822,222.624 7.1635821,217.92 C7.83265516,209.7328 11.9687431,208.2544 5.05498823,200 C5.05498823,200 1,200 1,200 Z M128.543205,234.179686 C123.270087,241.299438 132.792849,244.731978 137.887971,247.644101 C140.10179,248.917463 143.850822,250.976987 146.387258,249.471098 C149.646801,247.533374 147.28836,243.580417 145.241412,241.786638 C141.592503,238.60877 133.271212,232.917397 128.543205,234.179686 Z M-2.27373675e-13,239 C-2.27373675e-13,239 -2.27373675e-13,267.588817 -2.27373675e-13,267.588817 C-2.27373675e-13,267.588817 1.07248587,280.783656 1.07248587,280.783656 C1.07248587,280.783656 1.07248587,297.277205 1.07248587,297.277205 C1.07248587,297.277205 3.35151833,288.480646 3.35151833,288.480646 C6.88178431,290.624807 22.7456378,296.826381 26.8121467,297.804998 C30.1860085,298.607684 35.9841352,298.596689 37.838642,302.104317 C39.9612703,306.095755 34.967508,307.789093 36.8667017,315.969893 C43.0446671,311.98945 42.843576,307.481214 48.0831164,308.195934 C52.9093028,308.866672 66.4270934,318.169033 71.4990578,320.983932 C74.2919897,322.490343 79.2298934,324.6455 81.464239,320.983932 C82.9500788,318.58687 81.0732285,316.596648 79.1516913,315.255173 C79.1516913,315.255173 64.7960211,307.019394 64.7960211,307.019394 C64.7960211,307.019394 51.3899478,298.574697 51.3899478,298.574697 C51.3899478,298.574697 43.5809101,294.83616 43.5809101,294.83616 C39.5926033,292.48308 37.9280158,289.921082 34.5318106,288.491641 C34.5318106,288.491641 22.3434556,286.27051 22.3434556,286.27051 C15.9085404,284.61016 9.58534244,281.179501 3.35151833,284.082366 C3.35151833,284.082366 3.35151833,248.896129 3.35151833,248.896129 C3.31800315,243.981052 3.63081153,242.628581 -2.27373675e-13,239 Z M127.101733,254 C127.101733,254 119,270.826313 119,270.826313 C129.173462,272.520162 131.210469,261.448448 129.416514,254 C129.416514,254 127.101733,254 127.101733,254 Z M89.8299957,290 C91.9629566,286.731872 95.6813804,280.723799 100.07277,280.34967 C103.597289,280.063571 108.593208,284.46509 112.208976,282.231319 C117.786611,278.765123 108.832738,273.197202 105.775874,272.074814 C97.4493426,269.04877 94.7004465,272.746046 89.8299957,278.996203 C86.6932885,283.067608 83.0661143,287.689203 89.8299957,290 Z M164.66598,277.306174 C159.960366,279.191034 156.218554,283.464097 154.007482,287.908511 C153.281798,289.290028 152.159254,292.010223 154.007482,293.081166 C158.372931,295.555045 162.307504,285.381085 169.190171,287.587228 C171.820779,288.433273 187.230245,298.542976 194.13559,299.860236 C197.219751,300.438546 201.279051,299.260508 199.612243,295.608592 C198.376311,292.899106 193.421244,291.335529 190.733942,290.200329 C190.733942,290.200329 168.056289,277.306174 168.056289,277.306174 C165.618441,276.674318 166.162705,277.19908 164.66598,277.306174 Z M11,285 C11,285 11,293 11,293 C11,293 3,285 3,285 C3,285 11,285 11,285 Z M130.132987,298 C121.489336,303.095419 141.746508,313.965646 144.206624,313.999615 C147.664085,314.044908 149.692018,310.081804 146.134823,306.492365 C143.231443,303.570991 134.111283,298.317048 130.132987,298 Z M200,318.887688 C209.036857,320.056831 207.098,311.769667 213.482857,309.270909 C221.405429,306.176117 233.339429,316.595249 239,306.279277 C232.347714,303.092788 224.915429,302.909393 217.828571,300.880585 C215.21,300.502333 211.789143,299.103945 209.248571,300.880585 C206.663429,302.152888 200.936,315.529265 200,318.887688 Z M2,309 C2,309 2,323 2,323 C14.8987106,319.413846 10.1763793,313.296923 2,309 Z M119,310 C119,310 119,318 119,318 C119,318 119,310 119,310 Z M129.854901,320 C123.752551,321.991499 118.86405,330.756222 121.953848,332.598625 C125.49608,334.72857 129.049346,327.806249 129.854901,325.324863 C130.064566,323.578308 130.031461,321.778504 129.854901,320 Z M2,331 C2,331 2,340 2,340 C14.236124,337.01875 10.9731576,334.40875 2,331 Z M104,338 C105.133,344.894393 108.147,346.904802 115,345.648296 C113.141,339.999483 109.632,338.76483 104,338 Z M183,353.70639 C180.469632,348.372975 169.442091,337.751344 163.29849,341.966098 C161.375853,343.288152 150.867644,354.452164 154.922863,356.644288 C159.077528,358.89291 162.768108,349.774127 166.613383,349.039652 C171.60782,348.090485 173.994543,355.344833 183,353.70639 Z M3.8980962,345 C3.8980962,345 2,363 2,363 C4.39160121,362.5275 6.15683067,362.51625 7.86511724,361.21125 C11.8701002,358.51125 9.26970843,348.29625 7.86511724,345 C7.86511724,345 3.8980962,345 3.8980962,345 Z M3,366 C3,366 9.68757885,403 9.68757885,403 C11.9613557,398.201212 11.0117195,376.292727 8.88506939,371.628485 C7.57430393,368.735758 5.74190733,367.793939 3,366 Z M18,454 C18,454 24.1776062,482 24.1776062,482 C24.1776062,482 26,479.5136 26,479.5136 C26,479.5136 21.2895753,457.4832 21.2895753,457.4832 C21.2895753,457.4832 18,454 18,454 Z M22,487 C23.72,492.5575 22.6133333,497.92 30,500 C29.6,494.106667 28.76,490.011667 22,487 Z M52,544 C52,544 60,552 60,552 C58.76,546.336 58.84,545.92 52,544 Z M56,552.102302 C56,552.102302 61.8290523,560 61.8290523,560 C66.1716962,555.204969 63.8837932,551.312532 56,552.102302 Z" id="Selection" fill="#3A3A3A" mask="url(#mask-4)"></path>
            </g>
        </g>
        <g id="Wheel" transform="translate(2112.500000, 411.500000) scale(-1, 1) translate(-2112.500000, -411.500000) translate(1982.000000, 152.000000)">
            <g id="Wheel-2" transform="translate(-0.000000, 0.000000)">
                <mask id="mask-6" fill="white">
                    <use xlink:href="#path-5"></use>
                </mask>
                <use id="Wheel" fill="#000000" xlink:href="#path-5"></use>
                <path d="M71.117008,8.81994193 C71.117008,8.81994193 93.3268484,13.2520736 93.3268484,13.2520736 C93.3268484,13.2520736 93.3268484,15.4681394 93.3268484,15.4681394 C89.1513984,16.4764493 72.7272214,16.3767264 69.0514928,14.8033196 C66.7860891,13.839331 66.6417251,12.9418243 65.5645478,11.0360077 C47.308059,13.4958408 49.7622464,14.6703557 35.5812633,23.2243697 C35.5812633,23.2243697 34.4707713,19.900271 34.4707713,19.900271 C34.4707713,19.900271 28.9183111,22.1163368 28.9183111,22.1163368 C28.9183111,22.1163368 33.3602792,24.3324026 33.3602792,24.3324026 C33.3602792,24.3324026 26.6973271,26.5484684 26.6973271,26.5484684 C26.6973271,26.5484684 25.5868351,38.7368304 25.5868351,38.7368304 C35.625683,35.8227039 39.379146,24.9307404 45.5756915,35.4127317 C36.9582734,38.8143927 25.3314219,46.3600968 22.255359,55.6121716 C30.5285246,58.8033063 31.1059804,54.9916731 37.8022473,55.6121716 C40.5340577,56.23267 43.0992943,57.5401488 45.5756915,58.6814227 C40.9782545,60.0664638 36.0143552,61.385023 33.0715513,65.5290661 C30.3508459,69.3517796 32.1831577,72.0553799 28.5740586,75.4127196 C24.8539103,78.8697823 14.5707542,83.2021909 17.4691384,90.4598065 C19.1459814,94.6814118 25.1537432,90.9916623 28.796157,91.9667312 C33.0937611,93.1080051 33.8822105,98.1938761 34.4707713,101.894706 C22.8772345,103.833764 27.4524617,107.74512 25.4979957,114.083068 C23.6212642,120.188329 20.1121094,120.343454 22.4330377,128.487496 C22.8550247,129.97226 23.5213199,132.210486 24.4541332,133.429323 C25.4313662,134.714641 27.2858879,135.767272 28.6184783,136.69802 C38.1687097,143.368378 38.1464998,139.124612 45.8866292,140.886384 C53.2602963,142.548433 65.0315117,150.52627 70.0065159,150.016575 C73.7044544,149.628764 77.9909536,146.060898 81.1114361,143.999956 C82.1775085,148.808819 82.1330888,150.581672 79.8454752,155.080286 C78.2685766,158.193858 73.6045101,165.551197 70.2841389,166.69247 C67.8521614,167.512415 65.3424494,165.562277 63.3324589,164.409923 C63.3324589,164.409923 45.6867407,155.412695 45.6867407,155.412695 C41.2225627,152.177239 40.2453298,147.102449 33.3713841,148.908542 C24.343084,151.290813 29.1848292,158.93624 26.4974385,163.745103 C24.0543561,168.110753 15.8034004,171.479173 11.1504388,172.808812 C14.4152853,177.80604 16.7028989,175.999947 21.0338178,178.526262 C23.8322577,180.15507 25.0204841,182.382216 26.6973271,184.997174 C26.6973271,184.997174 32.2497872,181.673075 32.2497872,181.673075 C29.9288589,186.88083 26.4419139,191.224319 26.9083206,197.185536 C27.685665,207.324037 34.7594992,219.412676 35.2370107,222.670293 C35.5923682,225.119046 35.0260173,226.991621 34.4707713,229.31849 C27.3636223,225.462536 21.3558605,225.407134 13.3714228,226.094115 C11.0393896,226.29356 5.07604744,227.412674 7.61907417,231.113504 C9.09602856,233.263087 12.1498816,233.484694 14.4819149,233.806024 C14.4819149,233.806024 30.0288032,236.963917 30.0288032,236.963917 C32.8161381,237.163363 37.2136865,236.409901 38.6573262,239.545634 C39.5568247,241.506852 36.9915881,249.307404 36.6917553,252.587181 C44.9205012,250.18275 45.3980127,244.886353 52.2386436,247.035936 C56.9360248,248.49854 65.409079,254.625962 70.0065159,257.285241 C72.4607033,258.714603 76.7694123,260.864187 79.6566916,259.634271 C84.8982139,257.396044 77.8132748,244.354497 75.2591432,241.983306 C75.2591432,241.983306 51.1281516,226.681372 51.1281516,226.681372 C42.8216713,219.922371 38.4463327,205.440381 38.9127393,194.96947 C38.9127393,194.96947 57.7911037,203.002709 57.7911037,203.002709 C57.7911037,203.002709 67.7855319,207.667527 67.7855319,207.667527 C67.7855319,207.667527 81.1114361,200.509635 81.1114361,200.509635 C81.1114361,200.509635 78.3129963,223.778326 78.3129963,223.778326 C77.8021699,228.952839 81.8998855,238.526244 86.8637848,240.686908 C89.2624476,241.728459 95.0147963,241.551174 97.7688165,241.506852 C113.715482,241.207683 97.6355574,227.390513 113.315705,222.670293 C113.315705,222.670293 114.426197,237.074721 114.426197,237.074721 C114.426197,237.074721 121.388982,235.966688 121.388982,235.966688 C121.388982,235.966688 121.388982,223.778326 121.388982,223.778326 C121.388982,223.778326 121.388982,218.249242 121.388982,218.249242 C121.388982,218.249242 123.654385,213.196611 123.654385,213.196611 C123.654385,213.196611 135.525545,215.878051 135.525545,215.878051 C135.525545,215.878051 147.740957,204.941766 147.740957,204.941766 C147.740957,204.941766 146.630465,228.210457 146.630465,228.210457 C146.852564,239.634277 152.393919,234.02763 159.95637,235.124583 C169.228978,236.465303 166.896945,234.426522 173.282274,233.429292 C178.923573,232.542866 184.875811,237.119042 189.939654,239.168903 C192.471576,240.188293 195.225596,240.709069 197.046803,242.947295 C198.93464,245.263084 198.668122,247.634274 198.579282,250.371115 C198.579282,250.371115 198.579282,253.673054 198.579282,253.673054 C199.800823,265.506845 209.706412,251.235381 213.359931,250.17167 C213.359931,250.17167 228.806875,250.17167 228.806875,250.17167 C228.284944,248.697986 228.296049,247.866961 227.041193,246.404358 C224.498166,243.45699 210.317183,239.135662 205.486543,235.999929 C197.701993,230.936218 196.624816,224.553949 191.794176,219.700765 C191.794176,219.700765 167.729814,201.517945 167.729814,201.517945 C162.721495,196.864206 158.49052,192.986091 157.146825,186.105207 C156.469425,184.254792 155.69208,180.675846 157.146825,179.246483 C160.322832,176.77557 168.318375,183.52349 171.06129,185.152299 C175.047956,187.512409 185.264483,194.116285 189.750871,192.842047 C192.338317,192.110745 195.803052,188.055345 197.713098,186.105207 C196.8136,191.833737 193.282235,197.839275 196.169514,200.67584 C198.590387,203.03595 202.521529,202.094122 205.486543,202.337889 C212.638111,202.925146 216.191686,207.357278 223.665297,200.243707 C225.131146,198.858666 227.030088,196.897447 227.207766,194.781105 C227.763012,188.587201 218.568139,186.825428 215.203348,181.617674 C212.904629,178.049808 214.270534,175.811581 212.704741,171.700779 C212.704741,171.700779 209.27332,165.052582 209.27332,165.052582 C207.21891,160.553968 205.719746,152.299123 205.486543,147.324055 C213.315511,148.553972 216.369364,151.013805 223.254415,154.21602 C225.508714,155.268651 229.328806,157.185548 231.794099,155.955632 C235.214414,154.249261 234.714693,145.916853 233.537571,142.936245 C232.638072,140.631536 231.516476,139.789431 230.050626,137.994418 C224.220543,130.858686 227.651963,126.415474 223.2211,119.634313 C218.979021,113.15232 213.693079,112.365617 206.597035,101.894706 C216.202791,100.642629 220.855752,105.307447 228.806875,109.983346 C231.483161,111.556753 236.258276,114.13847 239.2455,111.833761 C244.320449,107.933485 237.979539,99.5899976 235.525352,96.3545415 C229.972892,88.997203 234.448174,88.3545439 231.272167,83.102468 C227.763012,77.2742149 214.836885,71.7118897 214.748046,66.4044121 C214.670312,62.5816985 220.48929,65.3850218 222.143923,66.4044121 C222.143923,66.4044121 237.690811,75.0138277 237.690811,75.0138277 C239.478703,75.4792016 242.876809,76.6537164 244.598072,75.0138277 C247.751869,72.7201996 242.887914,66.703581 241.633058,64.2215872 C241.633058,64.2215872 238.168323,55.357324 238.168323,55.357324 C234.103922,47.8005396 226.508157,42.1606521 218.812447,38.7368304 C228.373783,37.8171631 242.077255,51.0692366 249.906223,56.4653569 C254.126093,46.3600968 246.15276,40.1883535 241.022287,32.088633 C247.340987,37.5623155 253.693001,41.9833668 255.136641,50.9251924 C255.769621,57.4071849 252.049473,57.850398 255.136641,66.4376531 C256.435916,69.1855747 260.222694,77.1966526 261.943957,79.3240758 C264.131626,81.9944351 266.285981,82.7257368 268.284866,86.4265667 C268.284866,86.4265667 273.215451,103.002739 273.215451,103.002739 C275.969471,113.47365 271.738497,127.445945 281,135.135693 C281,135.135693 281,117.407167 281,117.407167 C281,117.407167 277.268747,100.786673 277.268747,100.786673 C277.268747,100.786673 268.640224,68.6537189 268.640224,68.6537189 C268.640224,68.6537189 259.101097,36.6204875 259.101097,36.6204875 C259.101097,36.6204875 245.464255,25.3074716 245.464255,25.3074716 C245.464255,25.3074716 214.370479,3.2022151 214.370479,3.2022151 C214.370479,3.2022151 206.597035,2.2493068 206.597035,2.2493068 C206.597035,2.2493068 195.025708,2.2493068 195.025708,2.2493068 C195.025708,2.2493068 181.055718,1.06371159 181.055718,1.06371159 C181.055718,1.06371159 148.851449,1.06371159 148.851449,1.06371159 C148.851449,1.06371159 135.525545,-4.54747351e-13 135.525545,-4.54747351e-13 C135.525545,-4.54747351e-13 117.757673,-4.54747351e-13 117.757673,-4.54747351e-13 C117.757673,-4.54747351e-13 71.117008,8.81994193 71.117008,8.81994193 Z M119,27.7507437 C115.011429,31.5749883 113.411429,31.0574214 111,22 C111,22 119,27.7507437 119,27.7507437 Z M177.142857,23 C177.142857,23 192,30.1977359 192,30.1977359 C186.754286,32.9148812 180.822857,28.1283868 176,24.799434 C176,24.799434 177.142857,23 177.142857,23 Z M97,28.0870671 C90.9618301,39.3812003 80.9359759,35.7397387 70.9441076,34.1823136 C68.3045324,33.7677472 60.0686046,34.0366551 60.0006327,30.2383305 C59.9326609,26.9778219 65.3590837,26.9554129 67.5455129,27.0114353 C67.5455129,27.0114353 85.6713511,30.0254451 85.6713511,30.0254451 C85.6713511,30.0254451 97,28.0870671 97,28.0870671 Z M203,34 C203,34 195,34 195,34 C195,34 203,34 203,34 Z M160,31 C157.944211,43.8872647 142.36,38.0978376 140.094211,34.8789162 C139.143684,33.5357691 139.243158,32.4936722 139,31 C155.59,33.6747153 145.078947,32.4126202 160,31 Z M169.430868,43 C174.220149,44.3653366 176.279199,45.685908 180.727201,47.6331913 C180.727201,47.6331913 188.690377,50.9905762 188.690377,50.9905762 C190.703923,51.8075399 200.032214,54.4263002 197.597758,57.9963195 C195.982371,60.3800629 190.669795,57.8732154 188.690377,57.0786343 C184.777045,55.4782808 171.17139,50.4533946 169.430868,47.1743486 C168.623174,45.4396997 169.146469,44.6115448 169.430868,43 Z M115,55 C109.599,54.32 105.881,53.72 104,47 C109.918,47.4 112.745,47.8533333 115,55 Z M90,57.5150181 C85.7992308,71.3532064 74.4979487,66.580261 64.6410256,64.4564679 C55.8094872,62.5450542 56.1623077,63.3386821 47,59.7505897 C47,59.7505897 54.7179487,55 54.7179487,55 C54.7179487,55 77.8717949,60.0859254 77.8717949,60.0859254 C77.8717949,60.0859254 90,57.5150181 90,57.5150181 Z M155,62 C150.402105,71.693978 137.879474,75.6516113 134,63.1116947 C134,63.1116947 143.947368,65.379552 143.947368,65.379552 C143.947368,65.379552 155,62 155,62 Z M124,69 C124,69 116,77 116,77 C116,77 124,69 124,69 Z M195,100 C189.375714,98.3888889 170.454643,88.7333333 166.5575,84.8777778 C164.6975,83.0444444 164.719643,82.3111111 164,80 C164,80 186.142857,89.9888889 186.142857,89.9888889 C186.142857,89.9888889 195,94.1333333 195,94.1333333 C195,94.1333333 195,100 195,100 Z M108.740048,93 C103.567,90.6546204 101.067055,89.8216818 99,84.2322257 C105.385142,83.1252941 110.190233,85.9638611 108.740048,93 Z M86,95.8220104 C85.2054774,101.619014 80.2507464,110.342661 73.8614608,110.995528 C71.8310142,111.198142 54.3625527,104.455607 51.8355296,103.07108 C49.0657356,101.551477 45.0489826,97.5217145 48.0836174,94.2011006 C50.2023443,91.9836058 53.7556258,93.3568767 56.2054037,94.2011006 C56.2054037,94.2011006 73.8614608,100.605946 73.8614608,100.605946 C78.1871947,100.819816 79.6438195,97.6567904 86,95.8220104 Z M151,102 C150.437609,108.265741 144.608208,120.853773 136.94022,117.415533 C134.020112,116.103573 126.168265,108.605041 130.061743,105.178111 C132.560058,102.98397 136.550872,106.863301 140.184785,106.750201 C142.834512,106.659721 147.885218,103.2441 151,102 Z M119,114 C116.584,118.8 116.552,119.466667 111,122 C111.544,116.4 111.576,114.066667 119,114 Z M196,137.333333 C192.887166,146.633333 192.463196,143.955556 193.768578,154 C186.282156,153.2 183.113536,150.255556 177.032911,146.222222 C168.754334,140.722222 158.076979,135.444444 160.297244,124 C172.603538,126.488889 183.02428,140.177778 196,137.333333 Z M95.790361,130 C98.0861253,130.759252 100.427126,131.476323 102.530635,132.667926 C109.870295,136.833266 108.660212,143.181454 105.618042,143.898525 C101.433644,144.868681 95.9599987,138.647034 95.1909742,135.272582 C94.7046793,133.131914 95.236211,131.982491 95.790361,130 Z M149,151 C148.856079,157.362078 146.376219,169.741755 138.99199,171.776328 C131.563478,173.810901 122.153291,161.409694 125.817728,157.082189 C128.30866,154.143361 132.903045,159.48277 136.811041,159.192117 C141.139726,158.869169 141.992179,154.294071 149,151 Z M108.068199,182 C106.133258,177.857403 103.918259,169.098125 109.799462,166.38907 C113.300178,164.774925 114.11489,168.567602 113.987591,170.734846 C113.720264,175.757886 112.167219,178.692695 108.068199,182 Z M7,165 C7,165 7,173 7,173 C7,173 7,165 7,165 Z M4.85503,175 C4.85503,175 1,191 1,191 C11.1965543,187.594286 10.6761253,180.337143 4.85503,175 Z M91,186 C95.0043248,186.716519 96.6335916,187.281049 100.178968,189.278617 C105.858454,192.48124 107.786038,194.73936 106.718983,201.198888 C106.455087,202.740489 105.961718,204.781483 104.848768,205.997394 C101.257497,209.883967 94.9584299,207.636702 92.9734781,203.326732 C92.3653715,201.991401 91.9293705,199.429303 91.6769489,197.941983 C91.1147371,194.695935 91.0458948,193.6103 91,190.342539 C91,190.342539 91,186 91,186 Z M1,200 C1,200 1,228 1,228 C8.80585233,225.1104 6.77835822,222.624 7.1635821,217.92 C7.83265516,209.7328 11.9687431,208.2544 5.05498823,200 C5.05498823,200 1,200 1,200 Z M128.543205,234.179686 C123.270087,241.299438 132.792849,244.731978 137.887971,247.644101 C140.10179,248.917463 143.850822,250.976987 146.387258,249.471098 C149.646801,247.533374 147.28836,243.580417 145.241412,241.786638 C141.592503,238.60877 133.271212,232.917397 128.543205,234.179686 Z M-2.27373675e-13,239 C-2.27373675e-13,239 -2.27373675e-13,267.588817 -2.27373675e-13,267.588817 C-2.27373675e-13,267.588817 1.07248587,280.783656 1.07248587,280.783656 C1.07248587,280.783656 1.07248587,297.277205 1.07248587,297.277205 C1.07248587,297.277205 3.35151833,288.480646 3.35151833,288.480646 C6.88178431,290.624807 22.7456378,296.826381 26.8121467,297.804998 C30.1860085,298.607684 35.9841352,298.596689 37.838642,302.104317 C39.9612703,306.095755 34.967508,307.789093 36.8667017,315.969893 C43.0446671,311.98945 42.843576,307.481214 48.0831164,308.195934 C52.9093028,308.866672 66.4270934,318.169033 71.4990578,320.983932 C74.2919897,322.490343 79.2298934,324.6455 81.464239,320.983932 C82.9500788,318.58687 81.0732285,316.596648 79.1516913,315.255173 C79.1516913,315.255173 64.7960211,307.019394 64.7960211,307.019394 C64.7960211,307.019394 51.3899478,298.574697 51.3899478,298.574697 C51.3899478,298.574697 43.5809101,294.83616 43.5809101,294.83616 C39.5926033,292.48308 37.9280158,289.921082 34.5318106,288.491641 C34.5318106,288.491641 22.3434556,286.27051 22.3434556,286.27051 C15.9085404,284.61016 9.58534244,281.179501 3.35151833,284.082366 C3.35151833,284.082366 3.35151833,248.896129 3.35151833,248.896129 C3.31800315,243.981052 3.63081153,242.628581 -2.27373675e-13,239 Z M127.101733,254 C127.101733,254 119,270.826313 119,270.826313 C129.173462,272.520162 131.210469,261.448448 129.416514,254 C129.416514,254 127.101733,254 127.101733,254 Z M89.8299957,290 C91.9629566,286.731872 95.6813804,280.723799 100.07277,280.34967 C103.597289,280.063571 108.593208,284.46509 112.208976,282.231319 C117.786611,278.765123 108.832738,273.197202 105.775874,272.074814 C97.4493426,269.04877 94.7004465,272.746046 89.8299957,278.996203 C86.6932885,283.067608 83.0661143,287.689203 89.8299957,290 Z M164.66598,277.306174 C159.960366,279.191034 156.218554,283.464097 154.007482,287.908511 C153.281798,289.290028 152.159254,292.010223 154.007482,293.081166 C158.372931,295.555045 162.307504,285.381085 169.190171,287.587228 C171.820779,288.433273 187.230245,298.542976 194.13559,299.860236 C197.219751,300.438546 201.279051,299.260508 199.612243,295.608592 C198.376311,292.899106 193.421244,291.335529 190.733942,290.200329 C190.733942,290.200329 168.056289,277.306174 168.056289,277.306174 C165.618441,276.674318 166.162705,277.19908 164.66598,277.306174 Z M11,285 C11,285 11,293 11,293 C11,293 3,285 3,285 C3,285 11,285 11,285 Z M130.132987,298 C121.489336,303.095419 141.746508,313.965646 144.206624,313.999615 C147.664085,314.044908 149.692018,310.081804 146.134823,306.492365 C143.231443,303.570991 134.111283,298.317048 130.132987,298 Z M200,318.887688 C209.036857,320.056831 207.098,311.769667 213.482857,309.270909 C221.405429,306.176117 233.339429,316.595249 239,306.279277 C232.347714,303.092788 224.915429,302.909393 217.828571,300.880585 C215.21,300.502333 211.789143,299.103945 209.248571,300.880585 C206.663429,302.152888 200.936,315.529265 200,318.887688 Z M2,309 C2,309 2,323 2,323 C14.8987106,319.413846 10.1763793,313.296923 2,309 Z M119,310 C119,310 119,318 119,318 C119,318 119,310 119,310 Z M129.854901,320 C123.752551,321.991499 118.86405,330.756222 121.953848,332.598625 C125.49608,334.72857 129.049346,327.806249 129.854901,325.324863 C130.064566,323.578308 130.031461,321.778504 129.854901,320 Z M2,331 C2,331 2,340 2,340 C14.236124,337.01875 10.9731576,334.40875 2,331 Z M104,338 C105.133,344.894393 108.147,346.904802 115,345.648296 C113.141,339.999483 109.632,338.76483 104,338 Z M183,353.70639 C180.469632,348.372975 169.442091,337.751344 163.29849,341.966098 C161.375853,343.288152 150.867644,354.452164 154.922863,356.644288 C159.077528,358.89291 162.768108,349.774127 166.613383,349.039652 C171.60782,348.090485 173.994543,355.344833 183,353.70639 Z M3.8980962,345 C3.8980962,345 2,363 2,363 C4.39160121,362.5275 6.15683067,362.51625 7.86511724,361.21125 C11.8701002,358.51125 9.26970843,348.29625 7.86511724,345 C7.86511724,345 3.8980962,345 3.8980962,345 Z M3,366 C3,366 9.68757885,403 9.68757885,403 C11.9613557,398.201212 11.0117195,376.292727 8.88506939,371.628485 C7.57430393,368.735758 5.74190733,367.793939 3,366 Z M18,454 C18,454 24.1776062,482 24.1776062,482 C24.1776062,482 26,479.5136 26,479.5136 C26,479.5136 21.2895753,457.4832 21.2895753,457.4832 C21.2895753,457.4832 18,454 18,454 Z M22,487 C23.72,492.5575 22.6133333,497.92 30,500 C29.6,494.106667 28.76,490.011667 22,487 Z M52,544 C52,544 60,552 60,552 C58.76,546.336 58.84,545.92 52,544 Z M56,552.102302 C56,552.102302 61.8290523,560 61.8290523,560 C66.1716962,555.204969 63.8837932,551.312532 56,552.102302 Z" id="Selection" fill="#3A3A3A" mask="url(#mask-6)"></path>
            </g>
        </g>
        <g id="Wheel" transform="translate(2112.500000, 1875.500000) scale(-1, 1) translate(-2112.500000, -1875.500000) translate(1982.000000, 1616.000000)">
            <g id="Wheel-2" transform="translate(-0.000000, 0.000000)">
                <mask id="mask-8" fill="white">
                    <use xlink:href="#path-7"></use>
                </mask>
                <use id="Wheel" fill="#000000" xlink:href="#path-7"></use>
                <path d="M71.117008,8.81994193 C71.117008,8.81994193 93.3268484,13.2520736 93.3268484,13.2520736 C93.3268484,13.2520736 93.3268484,15.4681394 93.3268484,15.4681394 C89.1513984,16.4764493 72.7272214,16.3767264 69.0514928,14.8033196 C66.7860891,13.839331 66.6417251,12.9418243 65.5645478,11.0360077 C47.308059,13.4958408 49.7622464,14.6703557 35.5812633,23.2243697 C35.5812633,23.2243697 34.4707713,19.900271 34.4707713,19.900271 C34.4707713,19.900271 28.9183111,22.1163368 28.9183111,22.1163368 C28.9183111,22.1163368 33.3602792,24.3324026 33.3602792,24.3324026 C33.3602792,24.3324026 26.6973271,26.5484684 26.6973271,26.5484684 C26.6973271,26.5484684 25.5868351,38.7368304 25.5868351,38.7368304 C35.625683,35.8227039 39.379146,24.9307404 45.5756915,35.4127317 C36.9582734,38.8143927 25.3314219,46.3600968 22.255359,55.6121716 C30.5285246,58.8033063 31.1059804,54.9916731 37.8022473,55.6121716 C40.5340577,56.23267 43.0992943,57.5401488 45.5756915,58.6814227 C40.9782545,60.0664638 36.0143552,61.385023 33.0715513,65.5290661 C30.3508459,69.3517796 32.1831577,72.0553799 28.5740586,75.4127196 C24.8539103,78.8697823 14.5707542,83.2021909 17.4691384,90.4598065 C19.1459814,94.6814118 25.1537432,90.9916623 28.796157,91.9667312 C33.0937611,93.1080051 33.8822105,98.1938761 34.4707713,101.894706 C22.8772345,103.833764 27.4524617,107.74512 25.4979957,114.083068 C23.6212642,120.188329 20.1121094,120.343454 22.4330377,128.487496 C22.8550247,129.97226 23.5213199,132.210486 24.4541332,133.429323 C25.4313662,134.714641 27.2858879,135.767272 28.6184783,136.69802 C38.1687097,143.368378 38.1464998,139.124612 45.8866292,140.886384 C53.2602963,142.548433 65.0315117,150.52627 70.0065159,150.016575 C73.7044544,149.628764 77.9909536,146.060898 81.1114361,143.999956 C82.1775085,148.808819 82.1330888,150.581672 79.8454752,155.080286 C78.2685766,158.193858 73.6045101,165.551197 70.2841389,166.69247 C67.8521614,167.512415 65.3424494,165.562277 63.3324589,164.409923 C63.3324589,164.409923 45.6867407,155.412695 45.6867407,155.412695 C41.2225627,152.177239 40.2453298,147.102449 33.3713841,148.908542 C24.343084,151.290813 29.1848292,158.93624 26.4974385,163.745103 C24.0543561,168.110753 15.8034004,171.479173 11.1504388,172.808812 C14.4152853,177.80604 16.7028989,175.999947 21.0338178,178.526262 C23.8322577,180.15507 25.0204841,182.382216 26.6973271,184.997174 C26.6973271,184.997174 32.2497872,181.673075 32.2497872,181.673075 C29.9288589,186.88083 26.4419139,191.224319 26.9083206,197.185536 C27.685665,207.324037 34.7594992,219.412676 35.2370107,222.670293 C35.5923682,225.119046 35.0260173,226.991621 34.4707713,229.31849 C27.3636223,225.462536 21.3558605,225.407134 13.3714228,226.094115 C11.0393896,226.29356 5.07604744,227.412674 7.61907417,231.113504 C9.09602856,233.263087 12.1498816,233.484694 14.4819149,233.806024 C14.4819149,233.806024 30.0288032,236.963917 30.0288032,236.963917 C32.8161381,237.163363 37.2136865,236.409901 38.6573262,239.545634 C39.5568247,241.506852 36.9915881,249.307404 36.6917553,252.587181 C44.9205012,250.18275 45.3980127,244.886353 52.2386436,247.035936 C56.9360248,248.49854 65.409079,254.625962 70.0065159,257.285241 C72.4607033,258.714603 76.7694123,260.864187 79.6566916,259.634271 C84.8982139,257.396044 77.8132748,244.354497 75.2591432,241.983306 C75.2591432,241.983306 51.1281516,226.681372 51.1281516,226.681372 C42.8216713,219.922371 38.4463327,205.440381 38.9127393,194.96947 C38.9127393,194.96947 57.7911037,203.002709 57.7911037,203.002709 C57.7911037,203.002709 67.7855319,207.667527 67.7855319,207.667527 C67.7855319,207.667527 81.1114361,200.509635 81.1114361,200.509635 C81.1114361,200.509635 78.3129963,223.778326 78.3129963,223.778326 C77.8021699,228.952839 81.8998855,238.526244 86.8637848,240.686908 C89.2624476,241.728459 95.0147963,241.551174 97.7688165,241.506852 C113.715482,241.207683 97.6355574,227.390513 113.315705,222.670293 C113.315705,222.670293 114.426197,237.074721 114.426197,237.074721 C114.426197,237.074721 121.388982,235.966688 121.388982,235.966688 C121.388982,235.966688 121.388982,223.778326 121.388982,223.778326 C121.388982,223.778326 121.388982,218.249242 121.388982,218.249242 C121.388982,218.249242 123.654385,213.196611 123.654385,213.196611 C123.654385,213.196611 135.525545,215.878051 135.525545,215.878051 C135.525545,215.878051 147.740957,204.941766 147.740957,204.941766 C147.740957,204.941766 146.630465,228.210457 146.630465,228.210457 C146.852564,239.634277 152.393919,234.02763 159.95637,235.124583 C169.228978,236.465303 166.896945,234.426522 173.282274,233.429292 C178.923573,232.542866 184.875811,237.119042 189.939654,239.168903 C192.471576,240.188293 195.225596,240.709069 197.046803,242.947295 C198.93464,245.263084 198.668122,247.634274 198.579282,250.371115 C198.579282,250.371115 198.579282,253.673054 198.579282,253.673054 C199.800823,265.506845 209.706412,251.235381 213.359931,250.17167 C213.359931,250.17167 228.806875,250.17167 228.806875,250.17167 C228.284944,248.697986 228.296049,247.866961 227.041193,246.404358 C224.498166,243.45699 210.317183,239.135662 205.486543,235.999929 C197.701993,230.936218 196.624816,224.553949 191.794176,219.700765 C191.794176,219.700765 167.729814,201.517945 167.729814,201.517945 C162.721495,196.864206 158.49052,192.986091 157.146825,186.105207 C156.469425,184.254792 155.69208,180.675846 157.146825,179.246483 C160.322832,176.77557 168.318375,183.52349 171.06129,185.152299 C175.047956,187.512409 185.264483,194.116285 189.750871,192.842047 C192.338317,192.110745 195.803052,188.055345 197.713098,186.105207 C196.8136,191.833737 193.282235,197.839275 196.169514,200.67584 C198.590387,203.03595 202.521529,202.094122 205.486543,202.337889 C212.638111,202.925146 216.191686,207.357278 223.665297,200.243707 C225.131146,198.858666 227.030088,196.897447 227.207766,194.781105 C227.763012,188.587201 218.568139,186.825428 215.203348,181.617674 C212.904629,178.049808 214.270534,175.811581 212.704741,171.700779 C212.704741,171.700779 209.27332,165.052582 209.27332,165.052582 C207.21891,160.553968 205.719746,152.299123 205.486543,147.324055 C213.315511,148.553972 216.369364,151.013805 223.254415,154.21602 C225.508714,155.268651 229.328806,157.185548 231.794099,155.955632 C235.214414,154.249261 234.714693,145.916853 233.537571,142.936245 C232.638072,140.631536 231.516476,139.789431 230.050626,137.994418 C224.220543,130.858686 227.651963,126.415474 223.2211,119.634313 C218.979021,113.15232 213.693079,112.365617 206.597035,101.894706 C216.202791,100.642629 220.855752,105.307447 228.806875,109.983346 C231.483161,111.556753 236.258276,114.13847 239.2455,111.833761 C244.320449,107.933485 237.979539,99.5899976 235.525352,96.3545415 C229.972892,88.997203 234.448174,88.3545439 231.272167,83.102468 C227.763012,77.2742149 214.836885,71.7118897 214.748046,66.4044121 C214.670312,62.5816985 220.48929,65.3850218 222.143923,66.4044121 C222.143923,66.4044121 237.690811,75.0138277 237.690811,75.0138277 C239.478703,75.4792016 242.876809,76.6537164 244.598072,75.0138277 C247.751869,72.7201996 242.887914,66.703581 241.633058,64.2215872 C241.633058,64.2215872 238.168323,55.357324 238.168323,55.357324 C234.103922,47.8005396 226.508157,42.1606521 218.812447,38.7368304 C228.373783,37.8171631 242.077255,51.0692366 249.906223,56.4653569 C254.126093,46.3600968 246.15276,40.1883535 241.022287,32.088633 C247.340987,37.5623155 253.693001,41.9833668 255.136641,50.9251924 C255.769621,57.4071849 252.049473,57.850398 255.136641,66.4376531 C256.435916,69.1855747 260.222694,77.1966526 261.943957,79.3240758 C264.131626,81.9944351 266.285981,82.7257368 268.284866,86.4265667 C268.284866,86.4265667 273.215451,103.002739 273.215451,103.002739 C275.969471,113.47365 271.738497,127.445945 281,135.135693 C281,135.135693 281,117.407167 281,117.407167 C281,117.407167 277.268747,100.786673 277.268747,100.786673 C277.268747,100.786673 268.640224,68.6537189 268.640224,68.6537189 C268.640224,68.6537189 259.101097,36.6204875 259.101097,36.6204875 C259.101097,36.6204875 245.464255,25.3074716 245.464255,25.3074716 C245.464255,25.3074716 214.370479,3.2022151 214.370479,3.2022151 C214.370479,3.2022151 206.597035,2.2493068 206.597035,2.2493068 C206.597035,2.2493068 195.025708,2.2493068 195.025708,2.2493068 C195.025708,2.2493068 181.055718,1.06371159 181.055718,1.06371159 C181.055718,1.06371159 148.851449,1.06371159 148.851449,1.06371159 C148.851449,1.06371159 135.525545,-4.54747351e-13 135.525545,-4.54747351e-13 C135.525545,-4.54747351e-13 117.757673,-4.54747351e-13 117.757673,-4.54747351e-13 C117.757673,-4.54747351e-13 71.117008,8.81994193 71.117008,8.81994193 Z M119,27.7507437 C115.011429,31.5749883 113.411429,31.0574214 111,22 C111,22 119,27.7507437 119,27.7507437 Z M177.142857,23 C177.142857,23 192,30.1977359 192,30.1977359 C186.754286,32.9148812 180.822857,28.1283868 176,24.799434 C176,24.799434 177.142857,23 177.142857,23 Z M97,28.0870671 C90.9618301,39.3812003 80.9359759,35.7397387 70.9441076,34.1823136 C68.3045324,33.7677472 60.0686046,34.0366551 60.0006327,30.2383305 C59.9326609,26.9778219 65.3590837,26.9554129 67.5455129,27.0114353 C67.5455129,27.0114353 85.6713511,30.0254451 85.6713511,30.0254451 C85.6713511,30.0254451 97,28.0870671 97,28.0870671 Z M203,34 C203,34 195,34 195,34 C195,34 203,34 203,34 Z M160,31 C157.944211,43.8872647 142.36,38.0978376 140.094211,34.8789162 C139.143684,33.5357691 139.243158,32.4936722 139,31 C155.59,33.6747153 145.078947,32.4126202 160,31 Z M169.430868,43 C174.220149,44.3653366 176.279199,45.685908 180.727201,47.6331913 C180.727201,47.6331913 188.690377,50.9905762 188.690377,50.9905762 C190.703923,51.8075399 200.032214,54.4263002 197.597758,57.9963195 C195.982371,60.3800629 190.669795,57.8732154 188.690377,57.0786343 C184.777045,55.4782808 171.17139,50.4533946 169.430868,47.1743486 C168.623174,45.4396997 169.146469,44.6115448 169.430868,43 Z M115,55 C109.599,54.32 105.881,53.72 104,47 C109.918,47.4 112.745,47.8533333 115,55 Z M90,57.5150181 C85.7992308,71.3532064 74.4979487,66.580261 64.6410256,64.4564679 C55.8094872,62.5450542 56.1623077,63.3386821 47,59.7505897 C47,59.7505897 54.7179487,55 54.7179487,55 C54.7179487,55 77.8717949,60.0859254 77.8717949,60.0859254 C77.8717949,60.0859254 90,57.5150181 90,57.5150181 Z M155,62 C150.402105,71.693978 137.879474,75.6516113 134,63.1116947 C134,63.1116947 143.947368,65.379552 143.947368,65.379552 C143.947368,65.379552 155,62 155,62 Z M124,69 C124,69 116,77 116,77 C116,77 124,69 124,69 Z M195,100 C189.375714,98.3888889 170.454643,88.7333333 166.5575,84.8777778 C164.6975,83.0444444 164.719643,82.3111111 164,80 C164,80 186.142857,89.9888889 186.142857,89.9888889 C186.142857,89.9888889 195,94.1333333 195,94.1333333 C195,94.1333333 195,100 195,100 Z M108.740048,93 C103.567,90.6546204 101.067055,89.8216818 99,84.2322257 C105.385142,83.1252941 110.190233,85.9638611 108.740048,93 Z M86,95.8220104 C85.2054774,101.619014 80.2507464,110.342661 73.8614608,110.995528 C71.8310142,111.198142 54.3625527,104.455607 51.8355296,103.07108 C49.0657356,101.551477 45.0489826,97.5217145 48.0836174,94.2011006 C50.2023443,91.9836058 53.7556258,93.3568767 56.2054037,94.2011006 C56.2054037,94.2011006 73.8614608,100.605946 73.8614608,100.605946 C78.1871947,100.819816 79.6438195,97.6567904 86,95.8220104 Z M151,102 C150.437609,108.265741 144.608208,120.853773 136.94022,117.415533 C134.020112,116.103573 126.168265,108.605041 130.061743,105.178111 C132.560058,102.98397 136.550872,106.863301 140.184785,106.750201 C142.834512,106.659721 147.885218,103.2441 151,102 Z M119,114 C116.584,118.8 116.552,119.466667 111,122 C111.544,116.4 111.576,114.066667 119,114 Z M196,137.333333 C192.887166,146.633333 192.463196,143.955556 193.768578,154 C186.282156,153.2 183.113536,150.255556 177.032911,146.222222 C168.754334,140.722222 158.076979,135.444444 160.297244,124 C172.603538,126.488889 183.02428,140.177778 196,137.333333 Z M95.790361,130 C98.0861253,130.759252 100.427126,131.476323 102.530635,132.667926 C109.870295,136.833266 108.660212,143.181454 105.618042,143.898525 C101.433644,144.868681 95.9599987,138.647034 95.1909742,135.272582 C94.7046793,133.131914 95.236211,131.982491 95.790361,130 Z M149,151 C148.856079,157.362078 146.376219,169.741755 138.99199,171.776328 C131.563478,173.810901 122.153291,161.409694 125.817728,157.082189 C128.30866,154.143361 132.903045,159.48277 136.811041,159.192117 C141.139726,158.869169 141.992179,154.294071 149,151 Z M108.068199,182 C106.133258,177.857403 103.918259,169.098125 109.799462,166.38907 C113.300178,164.774925 114.11489,168.567602 113.987591,170.734846 C113.720264,175.757886 112.167219,178.692695 108.068199,182 Z M7,165 C7,165 7,173 7,173 C7,173 7,165 7,165 Z M4.85503,175 C4.85503,175 1,191 1,191 C11.1965543,187.594286 10.6761253,180.337143 4.85503,175 Z M91,186 C95.0043248,186.716519 96.6335916,187.281049 100.178968,189.278617 C105.858454,192.48124 107.786038,194.73936 106.718983,201.198888 C106.455087,202.740489 105.961718,204.781483 104.848768,205.997394 C101.257497,209.883967 94.9584299,207.636702 92.9734781,203.326732 C92.3653715,201.991401 91.9293705,199.429303 91.6769489,197.941983 C91.1147371,194.695935 91.0458948,193.6103 91,190.342539 C91,190.342539 91,186 91,186 Z M1,200 C1,200 1,228 1,228 C8.80585233,225.1104 6.77835822,222.624 7.1635821,217.92 C7.83265516,209.7328 11.9687431,208.2544 5.05498823,200 C5.05498823,200 1,200 1,200 Z M128.543205,234.179686 C123.270087,241.299438 132.792849,244.731978 137.887971,247.644101 C140.10179,248.917463 143.850822,250.976987 146.387258,249.471098 C149.646801,247.533374 147.28836,243.580417 145.241412,241.786638 C141.592503,238.60877 133.271212,232.917397 128.543205,234.179686 Z M-2.27373675e-13,239 C-2.27373675e-13,239 -2.27373675e-13,267.588817 -2.27373675e-13,267.588817 C-2.27373675e-13,267.588817 1.07248587,280.783656 1.07248587,280.783656 C1.07248587,280.783656 1.07248587,297.277205 1.07248587,297.277205 C1.07248587,297.277205 3.35151833,288.480646 3.35151833,288.480646 C6.88178431,290.624807 22.7456378,296.826381 26.8121467,297.804998 C30.1860085,298.607684 35.9841352,298.596689 37.838642,302.104317 C39.9612703,306.095755 34.967508,307.789093 36.8667017,315.969893 C43.0446671,311.98945 42.843576,307.481214 48.0831164,308.195934 C52.9093028,308.866672 66.4270934,318.169033 71.4990578,320.983932 C74.2919897,322.490343 79.2298934,324.6455 81.464239,320.983932 C82.9500788,318.58687 81.0732285,316.596648 79.1516913,315.255173 C79.1516913,315.255173 64.7960211,307.019394 64.7960211,307.019394 C64.7960211,307.019394 51.3899478,298.574697 51.3899478,298.574697 C51.3899478,298.574697 43.5809101,294.83616 43.5809101,294.83616 C39.5926033,292.48308 37.9280158,289.921082 34.5318106,288.491641 C34.5318106,288.491641 22.3434556,286.27051 22.3434556,286.27051 C15.9085404,284.61016 9.58534244,281.179501 3.35151833,284.082366 C3.35151833,284.082366 3.35151833,248.896129 3.35151833,248.896129 C3.31800315,243.981052 3.63081153,242.628581 -2.27373675e-13,239 Z M127.101733,254 C127.101733,254 119,270.826313 119,270.826313 C129.173462,272.520162 131.210469,261.448448 129.416514,254 C129.416514,254 127.101733,254 127.101733,254 Z M89.8299957,290 C91.9629566,286.731872 95.6813804,280.723799 100.07277,280.34967 C103.597289,280.063571 108.593208,284.46509 112.208976,282.231319 C117.786611,278.765123 108.832738,273.197202 105.775874,272.074814 C97.4493426,269.04877 94.7004465,272.746046 89.8299957,278.996203 C86.6932885,283.067608 83.0661143,287.689203 89.8299957,290 Z M164.66598,277.306174 C159.960366,279.191034 156.218554,283.464097 154.007482,287.908511 C153.281798,289.290028 152.159254,292.010223 154.007482,293.081166 C158.372931,295.555045 162.307504,285.381085 169.190171,287.587228 C171.820779,288.433273 187.230245,298.542976 194.13559,299.860236 C197.219751,300.438546 201.279051,299.260508 199.612243,295.608592 C198.376311,292.899106 193.421244,291.335529 190.733942,290.200329 C190.733942,290.200329 168.056289,277.306174 168.056289,277.306174 C165.618441,276.674318 166.162705,277.19908 164.66598,277.306174 Z M11,285 C11,285 11,293 11,293 C11,293 3,285 3,285 C3,285 11,285 11,285 Z M130.132987,298 C121.489336,303.095419 141.746508,313.965646 144.206624,313.999615 C147.664085,314.044908 149.692018,310.081804 146.134823,306.492365 C143.231443,303.570991 134.111283,298.317048 130.132987,298 Z M200,318.887688 C209.036857,320.056831 207.098,311.769667 213.482857,309.270909 C221.405429,306.176117 233.339429,316.595249 239,306.279277 C232.347714,303.092788 224.915429,302.909393 217.828571,300.880585 C215.21,300.502333 211.789143,299.103945 209.248571,300.880585 C206.663429,302.152888 200.936,315.529265 200,318.887688 Z M2,309 C2,309 2,323 2,323 C14.8987106,319.413846 10.1763793,313.296923 2,309 Z M119,310 C119,310 119,318 119,318 C119,318 119,310 119,310 Z M129.854901,320 C123.752551,321.991499 118.86405,330.756222 121.953848,332.598625 C125.49608,334.72857 129.049346,327.806249 129.854901,325.324863 C130.064566,323.578308 130.031461,321.778504 129.854901,320 Z M2,331 C2,331 2,340 2,340 C14.236124,337.01875 10.9731576,334.40875 2,331 Z M104,338 C105.133,344.894393 108.147,346.904802 115,345.648296 C113.141,339.999483 109.632,338.76483 104,338 Z M183,353.70639 C180.469632,348.372975 169.442091,337.751344 163.29849,341.966098 C161.375853,343.288152 150.867644,354.452164 154.922863,356.644288 C159.077528,358.89291 162.768108,349.774127 166.613383,349.039652 C171.60782,348.090485 173.994543,355.344833 183,353.70639 Z M3.8980962,345 C3.8980962,345 2,363 2,363 C4.39160121,362.5275 6.15683067,362.51625 7.86511724,361.21125 C11.8701002,358.51125 9.26970843,348.29625 7.86511724,345 C7.86511724,345 3.8980962,345 3.8980962,345 Z M3,366 C3,366 9.68757885,403 9.68757885,403 C11.9613557,398.201212 11.0117195,376.292727 8.88506939,371.628485 C7.57430393,368.735758 5.74190733,367.793939 3,366 Z M18,454 C18,454 24.1776062,482 24.1776062,482 C24.1776062,482 26,479.5136 26,479.5136 C26,479.5136 21.2895753,457.4832 21.2895753,457.4832 C21.2895753,457.4832 18,454 18,454 Z M22,487 C23.72,492.5575 22.6133333,497.92 30,500 C29.6,494.106667 28.76,490.011667 22,487 Z M52,544 C52,544 60,552 60,552 C58.76,546.336 58.84,545.92 52,544 Z M56,552.102302 C56,552.102302 61.8290523,560 61.8290523,560 C66.1716962,555.204969 63.8837932,551.312532 56,552.102302 Z" id="Selection" fill="#3A3A3A" mask="url(#mask-8)"></path>
            </g>
        </g>
        <g id="Robot" transform="translate(897.500000, 0.000000)">
            <path d="M38.2229185,2252 L441.5,2252 L595.5,2037 L261.5,1912 L183,1649 L1190,1649 L1084.5,1912 L750.5,2037 L932.5,2252 L1317.98048,2252 C1320.18962,2252 1321.98048,2253.79086 1321.98048,2256 C1321.98048,2257.85108 1320.7104,2259.46035 1318.90999,2259.8905 C1207.56346,2286.49333 1078.76013,2304.86316 932.5,2315 L441.5,2315 C304.25377,2305.72263 169.556949,2287.36144 37.4095361,2259.91643 C35.2465487,2259.46722 33.8572661,2257.34961 34.3064854,2255.18662 C34.6919552,2253.33059 36.3272796,2252 38.2229185,2252 Z M603.5,2061 L483.5,2251 L888.5,2251 L738.5,2061 L603.5,2061 Z M229.5,462 L229.5,364 L385.5,364 C387.5,320 394.833333,298 407.5,298 C420.166667,298 472.833333,295 565.5,289 L565.5,201 C559.5,190.333333 556.5,179 556.5,167 C556.5,155 559.5,145.333333 565.5,138 C565.5,108.666667 562.5,90.6666667 556.5,84 C547.5,74 445.5,100 435.5,100 C428.833333,100 428.833333,90 435.5,70 C506.833333,58.6666667 550.166667,53 565.5,53 C588.5,53 588.5,35 626.5,35 C636.5,15 656.5,3.33333333 686.5,-5.68434189e-14 C716.5,3.33333333 736.5,15 746.5,35 C784.5,35 784.5,53 807.5,53 C822.833333,53 866.166667,58.6666667 937.5,70 C944.166667,90 944.166667,100 937.5,100 C927.5,100 825.5,74 816.5,84 C810.5,90.6666667 807.5,108.666667 807.5,138 C813.5,145.333333 816.5,155 816.5,167 C816.5,179 813.5,190.333333 807.5,201 L807.5,289 C900.166667,295 952.833333,298 965.5,298 C978.166667,298 985.5,320 987.5,364 L1143.5,364 L1143.5,462 L1143.5,568 L229.5,568 L229.5,462 Z" id="Combined-Shape" fill="#000000"></path>
            <polygon id="Base" fill="#181818" points="183 567.174982 686.5 313 1190 567.174982 1190 1677.29506 933 1764 686.5 1764 442 1764 183 1677.29506"></polygon>
            <rect id="Rectangle" fill="#1F1F1F" x="441.5" y="1039" width="491" height="725"></rect>
            <polygon id="Base-Shading" fill="#252424" points="183 567.174982 686.5 313 1190 567.174982 932.5 1039 720.5 1038.5 441.5 1039"></polygon>
            <polygon id="Base-Shading-Front" fill="#2D2D2D" points="683.5 313 929.5 1039 704.703575 1038.5 443 1039"></polygon>
            <path d="M686.5,1657 C913.5,1657 914,1421.14478 914,1295.5 C914,1169.85522 812.368638,1068 687,1068 C561.631362,1068 460,1169.85522 460,1295.5 C460,1421.14478 459.5,1657 686.5,1657 Z" id="Oval-Shading" fill="#000000"></path>
            <ellipse id="Oval-Copy" fill="#2C46FF" cx="687" cy="1295.5" rx="227" ry="227.5"></ellipse>
            <ellipse id="Oval-Top" fill="#5266FF" cx="687" cy="1305.5" rx="227" ry="227.5"></ellipse>
            <path d="M501.5,494 L899.5,494 C931.532515,494 957.5,499 957.5,552 L957.5,623 C957.5,681 931.532515,681 899.5,681 L501.5,681 C469.467485,681 443.5,681 443.5,623 L443.5,552 C443.5,499 469.467485,494 501.5,494 Z" id="Camera-Shading" fill="#000000"></path>
            <path d="M501.5,474 L899.5,474 C921.5,474 949.5,478 957.5,532 C962.833333,568 965.5,591.666667 965.5,603 C965.5,661 931.532515,661 899.5,661 L501.5,661 C469.467485,661 435.5,661 435.5,603 C435.5,591 438.166667,567.333333 443.5,532 C451.5,479 484.5,474 501.5,474 Z" id="Camera" fill="#FFFFFF"></path>
            <path d="M501.682927,479 L899.317073,479 C920.957206,479 938.5,489.745166 938.5,503 C938.5,516.254834 920.957206,527 899.317073,527 L501.682927,527 C480.042794,527 462.5,516.254834 462.5,503 C462.5,489.745166 480.042794,479 501.682927,479 Z" id="Rectangle-Copy" fill="#000000"></path>
            <ellipse id="Oval" fill="#058776" cx="767.5" cy="502" rx="34" ry="12"></ellipse>
        </g>
        <text id="Intel-RealSense-D435" font-family="Nunito-Regular, Nunito" font-size="96" font-weight="normal" fill="#058776">
            <tspan x="52.828125" y="564">Intel RealSense </tspan>
            <tspan x="177.515625" y="709">D435 Stereo </tspan>
            <tspan x="394.171875" y="854">Camera</tspan>
        </text>
        <text id="LIDAR-(Unused)" font-family="Nunito-Regular, Nunito" font-size="96" font-weight="normal" fill="#5266FF">
            <tspan x="447.1875" y="1363">LIDAR </tspan>
            <tspan x="337.828125" y="1508">(Unused)</tspan>
        </text>
        <path id="Path-3" d="M1249,1299.5 L782,1299.5 L782,1362.5 C782,1364.70914 780.209139,1366.5 778,1366.5 C775.790861,1366.5 774,1364.70914 774,1362.5 L774,1295.5 L778,1291.5 L1249,1291.5 L1249,1273.5 L1293,1295.5 L1249,1317.5 L1249,1299.5 Z" fill="#7BA4FF" fill-rule="nonzero"></path>
        <path id="Path-3-Copy" d="M1248.93064,510.145038 L782,501.078424 L782,564 C782,566.209139 780.209139,568 778,568 C775.790861,568 774,566.209139 774,564 L774,497 L778.077655,493.000754 L1249.08595,502.146546 L1249.4354,484.149938 L1293,507 L1248.58119,528.141646 L1248.93064,510.145038 Z" fill="#5ED8C8" fill-rule="nonzero"></path>
    </g>
</svg>